<svg xmlns="http://www.w3.org/2000/svg" width="13" height="13" viewBox="-1 1 18 16">
    <g fill="none" fill-rule="evenodd">
        <path fill="#9AA7B0" fill-opacity=".8" d="M15.0005111,9.0002 L9.78083333,9.0002 C8.7975,9.0002 8,10.0762 8,11.4032 L8,13 L0.9999,13 L0.9999,2.051 C0.9999,2.023 1.02301392,2 1.0511526,2 L4.99860792,2 C5.55535187,2 6.33117557,2.32 6.72511714,2.711 L8.01949658,4 L14.9999,4 L15.0005111,9.0002 Z"/>
        <path fill="#40B6E0" d="M13,10.0002 L13,15.6252 L13,16.0002 L12,16.0002 L10.4246667,16.0002 C9.638,16.0002 9,15.1932 9,14.1972 L9,11.80245 C9,10.8072 9.638,10.0002 10.4246667,10.0002 L13,10.0002 Z"/>
        <polygon fill="#40B6E0" points="14 12 16 12 16 11 14 11"/>
        <polygon fill="#40B6E0" points="14 15 16 15 16 14 14 14"/>
    </g>
</svg>
