<?xml version="1.0" encoding="UTF-8" standalone="no"?>
<!--

    Copyright (c) 2018-2022 Red Hat, Inc.
    This program and the accompanying materials are made
    available under the terms of the Eclipse Public License 2.0
    which is available at https://www.eclipse.org/legal/epl-2.0/

    SPDX-License-Identifier: EPL-2.0

    Contributors:
      Red Hat, Inc. - initial API and implementation

-->
<svg
   xmlns:dc="http://purl.org/dc/elements/1.1/"
   xmlns:cc="http://creativecommons.org/ns#"
   xmlns:rdf="http://www.w3.org/1999/02/22-rdf-syntax-ns#"
   xmlns:svg="http://www.w3.org/2000/svg"
   xmlns="http://www.w3.org/2000/svg"
   xml:space="preserve"
   style="enable-background:new 0 0 121 50;"
   viewBox="0 0 121 50"
   width="121"
   height="50"
   y="0px"
   x="0px"
   id="Layer_1"
   version="1.1"><defs
   id="defs106" />
<style
   id="style2"
   type="text/css">
	.st0{display:none;}
	.st1{display:inline;}
	.st2{fill:#B73057;}
	.st3{fill:#CC2028;}
	.st4{fill:#88181B;}
	.st5{fill:#FFFFFF;}
</style>
<g
   class="st0"
   id="CodeReady_Workspaces">
	<g
   id="g44"
   class="st1">
		<path
   id="path4"
   d="M42.6,26.5l1.2,1.2c-1.2,1.3-2.9,2-4.7,2c-3.4,0-6.1-2.6-6.1-6s2.7-6,6.1-6c1.9,0,3.6,0.8,4.7,2l-1.2,1.2    c-0.9-1.1-2.1-1.6-3.5-1.6c-2.5,0-4.3,1.9-4.3,4.3s1.9,4.3,4.3,4.3C40.5,28,41.8,27.5,42.6,26.5z"
   class="st2" />
		<path
   id="path6"
   d="M48.9,20.9c2.5,0,4.3,2,4.3,4.3c0,2.5-2,4.3-4.3,4.3s-4.3-2-4.3-4.3l0,0C44.4,22.9,46.4,20.9,48.9,20.9    C48.8,20.9,48.9,20.9,48.9,20.9z M51.6,25.2c0-1.6-1.2-2.9-2.7-2.9s-2.8,1.3-2.8,2.9s1.2,2.9,2.8,2.9    C50.4,28.2,51.6,26.9,51.6,25.2z"
   class="st2" />
		<path
   id="path8"
   d="M61.3,28.6c-0.7,0.6-1.6,0.9-2.6,0.9c-2.3,0-4.2-1.9-4.2-4.3s1.9-4.3,4.3-4.3c0.9,0,1.8,0.2,2.6,0.8v-3.9    l1.6-0.4v11.9h-1.6L61.3,28.6L61.3,28.6L61.3,28.6z M58.9,28.2c0.9,0,1.8-0.4,2.3-1.1v-3.9c-0.6-0.7-1.4-1.1-2.3-0.9    c-1.6,0-2.8,1.3-2.8,2.9S57.3,28.2,58.9,28.2z"
   class="st2" />
		<path
   id="path10"
   d="M68.9,29.6c-2.5,0-4.4-1.9-4.4-4.3s1.9-4.3,4.2-4.3c2.3,0,4.1,1.9,4.1,4.4v0.5h-6.7c0.2,1.4,1.4,2.5,2.8,2.5    c0.8,0,1.5-0.2,2.1-0.7l1.1,1.1C71.2,29.2,70,29.7,68.9,29.6z M66.2,24.5h5c-0.2-1.3-1.3-2.2-2.5-2.2    C67.3,22.3,66.4,23.2,66.2,24.5z"
   class="st2" />
		<path
   id="path12"
   d="M74.5,17.9h5.3c2.3,0,3.9,1.4,3.9,3.4c0,1.5-0.9,2.7-2.3,3.2l2.6,5h-1.9l-2.3-4.8h-3.3v4.8h-1.8V17.9H74.5z     M76.2,19.4v3.9h3.4c1.4,0,2.2-0.8,2.2-2s-0.9-2-2.2-2h-3.4V19.4z"
   class="st2" />
		<path
   id="path14"
   d="M88.7,29.6c-2.5,0-4.4-1.9-4.4-4.3s1.9-4.3,4.2-4.3s4.1,1.9,4.1,4.4v0.5h-6.7c0.2,1.4,1.4,2.5,2.8,2.5    c0.8,0,1.5-0.2,2.1-0.7l1.1,1.1C91.1,29.2,89.9,29.7,88.7,29.6z M85.9,24.5h5c-0.2-1.3-1.3-2.2-2.5-2.2    C87.2,22.3,86.3,23.2,85.9,24.5z"
   class="st2" />
		<path
   id="path16"
   d="M93.6,27c0-1.6,1.3-2.6,3.4-2.6c0.8,0,1.5,0.1,2.3,0.5V24c0-1.2-0.7-1.8-2.1-1.8c-0.8,0-1.5,0.2-2.6,0.7    L94,21.6c1.3-0.6,2.3-0.8,3.5-0.8c2.2,0,3.4,1.1,3.4,3v5.6h-1.6v-0.7c-0.7,0.6-1.6,0.9-2.6,0.8C94.9,29.6,93.6,28.5,93.6,27z     M97.1,28.4c0.8,0,1.6-0.2,2.2-0.8v-1.4c-0.7-0.4-1.4-0.6-2.2-0.5c-1.2,0-2,0.6-2,1.4C95.3,27.8,96,28.4,97.1,28.4z"
   class="st2" />
		<path
   id="path18"
   d="M109.3,28.6c-0.7,0.6-1.6,0.9-2.6,0.9c-2.3,0-4.2-1.9-4.2-4.3s1.9-4.3,4.3-4.3c0.9,0,1.8,0.4,2.6,0.8v-3.9    l1.6-0.4v11.9h-1.6v-0.8L109.3,28.6L109.3,28.6z M106.9,28.2c0.9,0,1.8-0.4,2.3-1.1v-3.9c-0.6-0.7-1.4-1.1-2.3-0.9    c-1.6,0-2.8,1.3-2.8,2.9S105.3,28.2,106.9,28.2z"
   class="st2" />
		<path
   id="path20"
   d="M115.2,29.4l-3.4-8.4h1.9l2.5,6.4l2.7-6.4h1.8l-4,9.5c-0.8,1.8-1.6,2.5-3.3,2.5c-0.4,0-0.6,0-0.8-0.1v-1.4    c0.2,0,0.5,0.1,0.7,0.1c0.8,0,1.3-0.4,1.6-1.3L115.2,29.4z"
   class="st2" />
		<path
   id="path22"
   d="M35.5,46.6L33,35h1.3l2,9.6l2.8-9.6h1.3l2.8,9.5l2-9.5h1.3L44,46.6h-1.3l-2.9-9.8l-2.9,9.8H35.5z"
   class="st2" />
		<path
   id="path24"
   d="M51,38.2c2.3,0,4.2,1.9,4.2,4.3s-1.9,4.3-4.2,4.3s-4.2-1.9-4.2-4.3C46.8,40.1,48.7,38.2,51,38.2z M54,42.4    c0-1.8-1.3-3.2-3-3.2c-1.6,0-3,1.4-3,3.2s1.3,3.3,3,3.3S54,44.3,54,42.4L54,42.4z"
   class="st2" />
		<path
   id="path26"
   d="M56.9,38.3h1.2v1.2c0.5-0.8,1.4-1.4,2.3-1.4c0.2,0,0.6,0,0.8,0.1v1.2c-0.2-0.1-0.6-0.1-0.8-0.1    c-1.1,0-1.8,0.6-2.2,1.8v5.6H57L56.9,38.3z"
   class="st2" />
		<path
   id="path28"
   d="M62.7,35l1.2-0.2V42l4.3-3.7h1.5l-4.6,4l4.8,4.3h-1.6l-4.3-4v4h-1.2V35H62.7z"
   class="st2" />
		<path
   id="path30"
   d="M70.6,44.6c0.7,0.7,1.6,1.1,2.7,1.2c1.3,0,2.2-0.6,2.2-1.5c0-0.7-0.5-1.2-1.5-1.3l-1.4-0.2    c-1.6-0.2-2.5-0.9-2.5-2.2c0-1.4,1.3-2.5,3.2-2.5c1.2,0,2.3,0.4,3.3,1.1L75.9,40c-0.9-0.6-1.8-0.9-2.7-0.9c-1.2,0-1.9,0.6-1.9,1.4    c0,0.7,0.5,1.1,1.5,1.2l1.4,0.2c1.6,0.2,2.5,0.9,2.5,2.2c0,1.4-1.4,2.6-3.4,2.6c-1.4,0-2.6-0.5-3.5-1.3L70.6,44.6z"
   class="st2" />
		<path
   id="path32"
   d="M78.1,38.3h1.2v0.9c0.7-0.7,1.6-1.1,2.7-1.1c2.3,0,4.2,1.9,4.2,4.2s-1.9,4.3-4.2,4.3c-0.9,0-1.9-0.4-2.7-0.9    V50h-1.2V38.3z M79.3,40.4v4.1c0.6,0.7,1.5,1.2,2.6,1.2c1.8,0,3-1.4,3-3.2s-1.3-3.2-3-3.2C80.8,39.3,79.8,39.7,79.3,40.4    L79.3,40.4z"
   class="st2" />
		<path
   id="path34"
   d="M87.4,44.3c0-1.5,1.3-2.6,3.3-2.6c0.8,0,1.6,0.2,2.5,0.6v-1.1c0-1.3-0.7-2-2.2-2c-0.8,0-1.6,0.2-2.6,0.7    L87.9,39c1.2-0.6,2.2-0.8,3.2-0.8c2.1,0,3.3,1.1,3.3,2.9v5.6h-1.2v-0.8c-0.7,0.6-1.8,0.9-2.7,0.9C88.6,46.7,87.4,45.7,87.4,44.3z     M90.7,45.8c0.9,0,1.8-0.4,2.5-0.9v-1.5c-0.7-0.5-1.4-0.7-2.3-0.7c-1.3,0-2.2,0.6-2.2,1.6C88.6,45.1,89.4,45.8,90.7,45.8z"
   class="st2" />
		<path
   id="path36"
   d="M102.6,44.6l0.7,0.8c-0.8,0.8-2,1.3-3.2,1.3c-2.3,0-4.2-1.9-4.2-4.3c0-2.5,1.9-4.3,4.2-4.3    c1.2,0,2.3,0.5,3.3,1.3l-0.8,0.9c-0.6-0.7-1.5-1.1-2.5-1.1c-1.8,0-3,1.4-3,3.2s1.3,3.2,3,3.2C101.1,45.7,101.9,45.3,102.6,44.6z"
   class="st2" />
		<path
   id="path38"
   d="M108.4,46.7c-2.3,0-4.2-1.9-4.2-4.2v-0.1c0-2.3,1.8-4.2,4.1-4.2c2.2,0,3.9,1.9,3.9,4.2v0.4h-6.8    c0.2,1.6,1.5,2.8,3.2,2.8c0.8,0,1.8-0.2,2.2-0.7l0.7,0.8C110.6,46.4,109.5,46.7,108.4,46.7z M105.4,41.8h5.5    c-0.2-1.5-1.4-2.6-2.7-2.6C106.7,39.3,105.7,40.3,105.4,41.8L105.4,41.8z"
   class="st2" />
		<path
   id="path40"
   d="M113.8,44.6c0.7,0.7,1.6,1.1,2.7,1.2c1.3,0,2.2-0.6,2.2-1.5c0-0.7-0.5-1.2-1.5-1.3l-1.4-0.2    c-1.6-0.2-2.5-0.9-2.5-2.2c0-1.4,1.3-2.5,3.2-2.5c1.2,0,2.3,0.4,3.3,1.1l-0.6,0.8c-0.9-0.6-1.8-0.9-2.7-0.9    c-1.2,0-1.9,0.6-1.9,1.4c0,0.7,0.5,1.1,1.5,1.2l1.4,0.2c1.6,0.2,2.5,0.9,2.5,2.2c0,1.4-1.4,2.6-3.4,2.6c-1.4,0-2.6-0.5-3.5-1.3    L113.8,44.6z"
   class="st2" />
		<path
   id="path42"
   d="M89.5,9.6c0,1.9,1.2,2.8,3.2,2.8c0.6,0,1.3-0.1,1.9-0.2V9.9c-0.4,0.1-0.8,0.2-1.2,0.2c-0.8,0-1.2-0.2-1.2-1.1    V5.7h2.5V3.5h-2.5V0.6l-2.7,0.6v2.2h-1.9v2.2h1.8L89.5,9.6z M81.1,9.6c0-0.6,0.6-0.8,1.5-0.8c0.6,0,1.1,0.1,1.6,0.2v1.2    c-0.5,0.2-1.1,0.5-1.6,0.5C81.6,10.5,81.1,10.2,81.1,9.6 M81.9,12.4c0.9,0,1.8-0.2,2.5-0.7v0.6h2.7V6.7c0-2.1-1.4-3.4-3.9-3.4    c-1.4,0-2.7,0.4-4.1,0.9l0.9,2c1.1-0.5,1.9-0.7,2.7-0.7c1.2,0,1.6,0.5,1.6,1.3v0.5c-0.7-0.1-1.3-0.2-2-0.2c-2.2,0-3.6,0.9-3.6,2.7    C78.7,11.2,80,12.4,81.9,12.4 M67.2,12.3h2.9V7.7h4.8v4.6h2.9V0.6h-2.9V5h-4.8V0.6h-2.9V12.3z M56.2,7.8c0-1.3,1.1-2.2,2.3-2.2    c0.7,0,1.4,0.2,1.9,0.7v3C60,9.8,59.3,10,58.6,10C57.3,10,56.2,9.1,56.2,7.8 M60.6,12.3h2.6V0l-2.7,0.6v3.3    c-0.7-0.4-1.5-0.6-2.2-0.6c-2.6,0-4.6,2-4.6,4.6c0,2.5,2,4.6,4.4,4.6c0,0,0,0,0.1,0c0.8,0,1.6-0.2,2.3-0.8L60.6,12.3z M48.3,5.5    c0.8,0,1.5,0.6,1.9,1.4h-3.7C46.7,6,47.4,5.5,48.3,5.5 M43.7,7.8c0,2.6,2.1,4.6,4.8,4.6c1.5,0,2.6-0.4,3.7-1.3l-1.9-1.6    c-0.5,0.5-1.1,0.7-1.8,0.7c-0.9,0-1.8-0.6-2.2-1.4h6.3V8.1c0-2.8-1.9-4.8-4.4-4.8C45.9,3.3,43.7,5.3,43.7,7.8L43.7,7.8 M39.1,3    c0.9,0,1.5,0.6,1.5,1.3S40,5.6,39.1,5.6h-2.8V2.9L39.1,3L39.1,3z M33.4,12.3h2.9V8.1h2.2l2.2,4.2h3.2l-2.6-4.7    c1.3-0.6,2.2-1.9,2.2-3.3c0-2.1-1.6-3.7-4.1-3.7h-6L33.4,12.3z"
   class="st2" />
	</g>
	<g
   class="st1"
   transform="matrix(0.06159216,0,0,0.06141563,-47.414261,-21.311838)"
   id="g622">
		<path
   d="M1172.6,528.4c0.8,0.1,1.6,0.1,2.4,0.2C1174.2,528.6,1173.4,528.5,1172.6,528.4L1172.6,528.4z"
   class="st3"
   id="path612" />
		<path
   d="M1175.7,528.7L1175.7,528.7c-0.1,0-0.1,0-0.2,0C1175.6,528.7,1175.6,528.7,1175.7,528.7z"
   class="st3"
   id="path614" />
		<path
   d="M1024.1,599.2c-11.6,2.9-23.1,5.9-34.6,9.1c-5.1,1.4-10.5,2.2-16.1,2.2c-20.2,0-38-10-48.9-25.3    c0-0.1-0.1-0.1-0.1-0.2c-0.2-0.3-0.4-0.6-0.6-0.9c-0.1-0.2-0.2-0.3-0.4-0.5c-0.1-0.2-0.2-0.4-0.4-0.6c-0.2-0.3-0.4-0.6-0.6-0.9    c0-0.1-0.1-0.1-0.1-0.2c-5.7-9.2-9-20-9-31.6c0-0.7,0-1.4,0-2.1c-4,47.1,17.3,90.7,52.8,117c18.5,13.7,40.9,22.8,65.5,25.3    c70.8,7,134.1-43.4,143.6-113.4c0.2-1.6,0.4-3.1,0.6-4.7C1124.6,577.4,1074,586.8,1024.1,599.2z"
   class="st3"
   id="path616" />
		<path
   d="M1031.6,690.6c-24.6-2.4-47-11.5-65.5-25.3c-35.5-26.4-56.8-69.9-52.8-117    c0.1-3.8,0.6-7.5,1.4-11.1c6-26.8,30-46.9,58.6-46.9c7.9,0,15.5,1.5,22.4,4.3c9.6,3,19.2,5.8,28.9,8.4c48.4,13,98,21.1,148,25.4    l0,0c-68.4-6.3-133.2-33.6-185.5-78.2l0,0c-2.3-1.9-4.6-3.8-7-5.6c-21.9-16.3-49.1-26-78.6-26c-72.8,0-131.7,58.9-131.8,131.7    c0,0.1,0,0.1,0,0.2v0.1l0,0c0,112.4,91.1,203.5,203.5,203.5l0,0c103.4,0,188.7-77,201.8-176.8    C1165.7,647.2,1102.4,697.7,1031.6,690.6z"
   class="st4"
   id="path618" />
		<path
   d="M973.3,347L973.3,347c-21.6,0-42.5,3.4-62,9.6c-82,26.2-141.4,103-141.5,193.7    c0.1-72.7,59-131.7,131.8-131.7c29.4,0,56.6,9.7,78.6,26l7,5.6c52.3,44.7,117.1,72,185.5,78.2c0.8,0.1,1.6,0.1,2.4,0.2    c0.2,0,0.3,0,0.5,0c0.1,0,0.1,0,0.2,0C1164.8,426.6,1078.4,347,973.3,347z"
   class="st3"
   id="path620" />
	</g>
</g>
<g
   id="g101">
	<path
   id="path53"
   d="M0.5,12.1V0.9h4.8c1.1,0,2,0.3,2.6,0.9c0.7,0.6,1,1.4,1,2.3C9,4.8,8.8,5.5,8.3,6c-0.4,0.5-1,0.9-1.7,1.1l2.5,5   H7.7L5.3,7.3H1.8v4.8H0.5z M5.2,2H1.8v4.2h3.5C6,6.2,6.6,6,7.1,5.7c0.5-0.4,0.7-0.9,0.7-1.5c0-0.6-0.2-1.2-0.7-1.5S6,2,5.2,2z"
   class="st5" />
	<path
   id="path55"
   d="M16.5,11.2c-0.4,0.3-0.9,0.6-1.4,0.7s-1,0.2-1.6,0.2s-1.1-0.1-1.6-0.3c-0.5-0.2-0.9-0.5-1.3-0.9   c-0.4-0.4-0.7-0.8-0.9-1.3C9.5,9.2,9.4,8.7,9.4,8.1c0-0.6,0.1-1.1,0.3-1.6s0.5-0.9,0.8-1.3s0.8-0.7,1.3-0.9c0.5-0.2,1-0.3,1.5-0.3   c0.5,0,1,0.1,1.5,0.3c0.5,0.2,0.9,0.5,1.2,0.9s0.6,0.8,0.8,1.3s0.3,1,0.3,1.6v0.4h-6.6c0.1,0.8,0.4,1.4,1,2c0.6,0.5,1.2,0.8,2,0.8   c0.4,0,0.8-0.1,1.2-0.2c0.4-0.1,0.7-0.3,1-0.5L16.5,11.2z M13.3,5c-0.7,0-1.3,0.2-1.8,0.7c-0.5,0.5-0.8,1.1-0.9,1.8h5.4   c-0.1-0.7-0.4-1.3-0.9-1.8S14,5,13.3,5z"
   class="st5" />
	<path
   id="path57"
   d="M24.6,12.1v-0.8c-0.3,0.3-0.7,0.6-1.2,0.7c-0.4,0.2-0.9,0.2-1.4,0.2c-0.6,0-1.1-0.1-1.6-0.3s-0.9-0.5-1.3-0.9   c-0.4-0.4-0.6-0.8-0.9-1.3C18.1,9.2,18,8.7,18,8.1c0-0.6,0.1-1.1,0.3-1.6c0.2-0.5,0.5-0.9,0.9-1.3c0.4-0.4,0.8-0.7,1.3-0.9   C21,4.1,21.5,4,22.1,4C22.5,4,23,4,23.4,4.2c0.4,0.2,0.8,0.4,1.2,0.7v-4l1.2-0.3v11.5H24.6z M19.2,8.1c0,0.4,0.1,0.8,0.2,1.2   c0.2,0.4,0.4,0.7,0.6,1c0.3,0.3,0.6,0.5,0.9,0.7c0.4,0.2,0.8,0.2,1.2,0.2c0.5,0,1-0.1,1.4-0.3s0.8-0.5,1.1-0.8v-4   c-0.3-0.3-0.6-0.6-1.1-0.8C23.1,5.1,22.7,5,22.2,5c-0.8,0-1.5,0.3-2.1,0.9C19.5,6.5,19.2,7.2,19.2,8.1z"
   class="st5" />
	<path
   id="path59"
   d="M30.7,12.1V0.9h1.2v5h6.5v-5h1.2v11.2h-1.2V7h-6.5v5.1H30.7z"
   class="st5" />
	<path
   id="path61"
   d="M43.9,12.2c-0.9,0-1.6-0.2-2.1-0.7c-0.5-0.4-0.8-1-0.8-1.7c0-0.7,0.3-1.3,0.9-1.8c0.6-0.4,1.4-0.7,2.3-0.7   c0.4,0,0.8,0,1.2,0.1c0.4,0.1,0.8,0.2,1.1,0.4V6.9c0-0.6-0.2-1.1-0.5-1.4c-0.4-0.3-0.9-0.5-1.6-0.5c-0.4,0-0.8,0.1-1.2,0.2   s-0.8,0.3-1.3,0.5l-0.4-0.9C42,4.4,42.5,4.2,43,4.1c0.5-0.1,1-0.2,1.5-0.2c1,0,1.8,0.2,2.3,0.7s0.8,1.2,0.8,2.1v5.4h-1.2v-0.8   c-0.4,0.3-0.8,0.5-1.2,0.7C44.8,12.2,44.4,12.2,43.9,12.2z M42,9.8c0,0.4,0.2,0.8,0.6,1.1c0.4,0.3,0.9,0.4,1.5,0.4   c0.5,0,0.9-0.1,1.3-0.2c0.4-0.1,0.8-0.4,1.1-0.7V8.9c-0.3-0.2-0.7-0.4-1.1-0.5c-0.4-0.1-0.8-0.2-1.3-0.2c-0.6,0-1.1,0.1-1.5,0.4   C42.2,8.9,42,9.3,42,9.8z"
   class="st5" />
	<path
   id="path63"
   d="M49.9,10.3V5.1h-1.7v-1h1.7V2L51,1.7v2.3h2.4v1H51V10c0,0.4,0.1,0.7,0.3,0.9s0.5,0.3,0.9,0.3   c0.2,0,0.4,0,0.6,0c0.2,0,0.4-0.1,0.6-0.2v1c-0.2,0.1-0.4,0.1-0.7,0.2c-0.3,0-0.5,0-0.7,0c-0.7,0-1.2-0.2-1.6-0.5   C50.1,11.4,49.9,10.9,49.9,10.3z"
   class="st5" />
	<path
   id="path65"
   d="M11.5,23.5c0,0.8-0.1,1.6-0.4,2.3c-0.3,0.7-0.7,1.3-1.2,1.8c-0.5,0.5-1.1,0.9-1.8,1.2   c-0.7,0.3-1.5,0.4-2.3,0.4s-1.6-0.1-2.3-0.4c-0.7-0.3-1.3-0.7-1.8-1.2c-0.5-0.5-0.9-1.1-1.2-1.8C0.1,25.1,0,24.3,0,23.5   c0-0.8,0.1-1.6,0.4-2.3s0.7-1.3,1.2-1.8c0.5-0.5,1.1-0.9,1.8-1.2c0.7-0.3,1.5-0.4,2.3-0.4s1.6,0.1,2.3,0.4c0.7,0.3,1.3,0.7,1.8,1.2   c0.5,0.5,0.9,1.1,1.2,1.8C11.4,21.9,11.5,22.7,11.5,23.5z M10.3,23.5c0-0.7-0.1-1.3-0.4-1.8c-0.2-0.6-0.6-1.1-1-1.5s-0.9-0.7-1.4-1   C7,19,6.4,18.9,5.8,18.9c-0.6,0-1.2,0.1-1.8,0.4c-0.6,0.2-1,0.6-1.4,1s-0.7,0.9-1,1.5c-0.2,0.6-0.4,1.2-0.4,1.8   c0,0.7,0.1,1.3,0.4,1.8c0.2,0.6,0.6,1.1,1,1.5s0.9,0.7,1.4,1c0.6,0.2,1.2,0.4,1.8,0.4c0.6,0,1.2-0.1,1.8-0.4c0.6-0.2,1-0.6,1.4-1   s0.7-0.9,1-1.5C10.2,24.8,10.3,24.1,10.3,23.5z"
   class="st5" />
	<path
   id="path67"
   d="M12.8,32.4V21.1H14v0.9c0.3-0.3,0.7-0.6,1.2-0.7c0.4-0.2,0.9-0.2,1.4-0.2c0.6,0,1.1,0.1,1.6,0.3   c0.5,0.2,0.9,0.5,1.3,0.9c0.4,0.4,0.6,0.8,0.9,1.3c0.2,0.5,0.3,1,0.3,1.6c0,0.6-0.1,1.1-0.3,1.6s-0.5,1-0.9,1.3s-0.8,0.7-1.3,0.9   c-0.5,0.2-1,0.3-1.6,0.3c-0.5,0-0.9-0.1-1.4-0.2c-0.4-0.2-0.8-0.4-1.2-0.7v4.1H12.8z M16.5,22c-0.5,0-1,0.1-1.4,0.3   c-0.4,0.2-0.8,0.5-1.1,0.8v4c0.3,0.3,0.6,0.6,1.1,0.8c0.4,0.2,0.9,0.3,1.4,0.3c0.8,0,1.5-0.3,2.1-0.9s0.9-1.3,0.9-2.2   c0-0.4-0.1-0.8-0.2-1.2c-0.2-0.4-0.4-0.7-0.6-1s-0.6-0.5-0.9-0.7C17.3,22.1,16.9,22,16.5,22z"
   class="st5" />
	<path
   id="path69"
   d="M28.7,28.2c-0.4,0.3-0.9,0.6-1.4,0.7s-1,0.2-1.6,0.2s-1.1-0.1-1.6-0.3c-0.5-0.2-0.9-0.5-1.3-0.9   s-0.7-0.8-0.9-1.3c-0.2-0.5-0.3-1.1-0.3-1.6c0-0.6,0.1-1.1,0.3-1.6s0.5-0.9,0.8-1.3s0.8-0.7,1.3-0.9c0.5-0.2,1-0.3,1.5-0.3   c0.5,0,1,0.1,1.5,0.3c0.5,0.2,0.9,0.5,1.2,0.9s0.6,0.8,0.8,1.3s0.3,1,0.3,1.6v0.4h-6.6c0.1,0.8,0.4,1.4,1,2c0.6,0.5,1.2,0.8,2,0.8   c0.4,0,0.8-0.1,1.2-0.2c0.4-0.1,0.7-0.3,1-0.5L28.7,28.2z M25.5,22c-0.7,0-1.3,0.2-1.8,0.7c-0.5,0.5-0.8,1.1-0.9,1.8h5.4   c-0.1-0.7-0.4-1.3-0.9-1.8S26.1,22,25.5,22z"
   class="st5" />
	<path
   id="path71"
   d="M30.5,29.1v-8h1.2V22c0.3-0.4,0.7-0.6,1.1-0.8s0.9-0.3,1.4-0.3c0.9,0,1.6,0.3,2.2,0.9c0.6,0.6,0.9,1.3,0.9,2.2   v5.1h-1.2v-4.8c0-0.7-0.2-1.3-0.6-1.7c-0.4-0.4-0.9-0.6-1.6-0.6c-0.5,0-0.9,0.1-1.3,0.3c-0.4,0.2-0.7,0.5-0.9,0.9v5.9H30.5z"
   class="st5" />
	<path
   id="path73"
   d="M38.1,27.2l0.8-0.8c0.6,0.6,1.2,1.1,1.8,1.4c0.7,0.3,1.3,0.5,2.1,0.5c0.9,0,1.6-0.2,2.2-0.6s0.8-0.9,0.8-1.6   c0-0.6-0.2-1-0.6-1.3c-0.4-0.3-1.1-0.5-2-0.7l-1.6-0.3c-1.1-0.2-1.9-0.5-2.4-1c-0.5-0.5-0.8-1.1-0.8-1.9c0-0.9,0.4-1.7,1.1-2.3   c0.7-0.6,1.7-0.9,2.8-0.9c0.8,0,1.6,0.1,2.3,0.4s1.5,0.6,2.1,1.1l-0.7,1c-0.6-0.5-1.2-0.8-1.9-1c-0.6-0.2-1.3-0.4-1.9-0.4   c-0.8,0-1.4,0.2-1.9,0.6c-0.5,0.4-0.7,0.8-0.7,1.4c0,0.5,0.2,0.9,0.5,1.2c0.4,0.3,0.9,0.5,1.7,0.6l1.6,0.3c1.2,0.2,2.1,0.5,2.7,1   s0.8,1.2,0.8,2c0,0.5-0.1,0.9-0.3,1.4c-0.2,0.4-0.5,0.8-0.9,1.1c-0.4,0.3-0.8,0.5-1.4,0.7c-0.5,0.2-1.1,0.2-1.7,0.2   c-0.9,0-1.7-0.2-2.6-0.5S38.7,27.8,38.1,27.2z"
   class="st5" />
	<path
   id="path75"
   d="M48.1,29.1V17.9l1.2-0.3V22c0.3-0.4,0.7-0.6,1.1-0.8s0.9-0.3,1.4-0.3c0.9,0,1.6,0.3,2.2,0.9   c0.6,0.6,0.9,1.3,0.9,2.2v5.1h-1.2v-4.8c0-0.7-0.2-1.3-0.6-1.7c-0.4-0.4-0.9-0.6-1.6-0.6c-0.5,0-0.9,0.1-1.3,0.3   c-0.4,0.2-0.7,0.5-0.9,0.9v5.9H48.1z"
   class="st5" />
	<path
   id="path77"
   d="M57.1,19.5c-0.2,0-0.4-0.1-0.6-0.2s-0.2-0.3-0.2-0.6c0-0.2,0.1-0.4,0.2-0.6s0.3-0.2,0.6-0.2   c0.2,0,0.4,0.1,0.6,0.2s0.2,0.3,0.2,0.6c0,0.2-0.1,0.4-0.2,0.6S57.3,19.5,57.1,19.5z M57.7,21.1v8h-1.2v-8H57.7z"
   class="st5" />
	<path
   id="path79"
   d="M58.6,21.1h1.9v-1.5c0-0.8,0.2-1.4,0.6-1.8s1-0.6,1.8-0.6c0.2,0,0.4,0,0.6,0c0.2,0,0.3,0.1,0.5,0.1v1.1   c-0.2-0.1-0.3-0.1-0.5-0.1c-0.1,0-0.3,0-0.5,0c-0.5,0-0.8,0.1-1,0.3s-0.3,0.6-0.3,1.1v1.5H64v1h-2.4v7h-1.2v-7h-1.9V21.1z"
   class="st5" />
	<path
   id="path81"
   d="M66,27.3v-5.2h-1.7v-1H66v-2l1.2-0.3v2.3h2.4v1h-2.4V27c0,0.4,0.1,0.7,0.3,0.9c0.2,0.2,0.5,0.3,0.9,0.3   c0.2,0,0.4,0,0.6,0c0.2,0,0.4-0.1,0.6-0.2v1c-0.2,0.1-0.4,0.1-0.7,0.2c-0.3,0-0.5,0-0.7,0c-0.7,0-1.2-0.2-1.6-0.5   C66.2,28.4,66,27.9,66,27.3z"
   class="st5" />
	<path
   id="path83"
   d="M0.5,46.1V34.9h3.7c0.8,0,1.6,0.1,2.4,0.4c0.7,0.3,1.3,0.7,1.9,1.2C9,37,9.4,37.6,9.7,38.2   c0.3,0.7,0.4,1.4,0.4,2.2s-0.1,1.6-0.4,2.2C9.4,43.4,9,44,8.5,44.5c-0.5,0.5-1.1,0.9-1.9,1.2c-0.7,0.3-1.5,0.4-2.4,0.4H0.5z    M4.3,36H1.8v9h2.5c0.6,0,1.2-0.1,1.8-0.3s1.1-0.5,1.5-0.9c0.4-0.4,0.7-0.9,1-1.4c0.2-0.5,0.4-1.1,0.4-1.8c0-0.6-0.1-1.2-0.4-1.8   c-0.2-0.5-0.6-1-1-1.4c-0.4-0.4-0.9-0.7-1.5-0.9S4.9,36,4.3,36z"
   class="st5" />
	<path
   id="path85"
   d="M18.2,45.2c-0.4,0.3-0.9,0.6-1.4,0.7s-1,0.2-1.6,0.2s-1.1-0.1-1.6-0.3c-0.5-0.2-0.9-0.5-1.3-0.9   s-0.7-0.8-0.9-1.3c-0.2-0.5-0.3-1.1-0.3-1.6c0-0.6,0.1-1.1,0.3-1.6c0.2-0.5,0.5-0.9,0.8-1.3c0.4-0.4,0.8-0.7,1.3-0.9   c0.5-0.2,1-0.3,1.5-0.3c0.5,0,1,0.1,1.5,0.3c0.5,0.2,0.9,0.5,1.2,0.9c0.3,0.4,0.6,0.8,0.8,1.3c0.2,0.5,0.3,1,0.3,1.6v0.4h-6.6   c0.1,0.8,0.4,1.4,1,2c0.6,0.5,1.2,0.8,2,0.8c0.4,0,0.8-0.1,1.2-0.2c0.4-0.1,0.7-0.3,1-0.5L18.2,45.2z M15,39   c-0.7,0-1.3,0.2-1.8,0.7c-0.5,0.5-0.8,1.1-0.9,1.8h5.4c-0.1-0.7-0.4-1.3-0.9-1.8S15.6,39,15,39z"
   class="st5" />
	<path
   id="path87"
   d="M22.3,46.1l-3.5-8h1.3l2.7,6.5l2.7-6.5h1.3l-3.5,8H22.3z"
   class="st5" />
	<path
   id="path89"
   d="M29.7,44.2l0.8-0.8c0.6,0.6,1.2,1.1,1.8,1.4c0.7,0.3,1.3,0.5,2.1,0.5c0.9,0,1.6-0.2,2.2-0.6s0.8-0.9,0.8-1.6   c0-0.6-0.2-1-0.6-1.3c-0.4-0.3-1.1-0.5-2-0.7l-1.6-0.3c-1.1-0.2-1.9-0.5-2.4-1c-0.5-0.5-0.8-1.1-0.8-1.9c0-0.9,0.4-1.7,1.1-2.3   c0.7-0.6,1.7-0.9,2.8-0.9c0.8,0,1.6,0.1,2.3,0.4s1.5,0.6,2.1,1.1l-0.7,1c-0.6-0.5-1.2-0.8-1.9-1c-0.6-0.2-1.3-0.4-1.9-0.4   c-0.8,0-1.4,0.2-1.9,0.6c-0.5,0.4-0.7,0.8-0.7,1.4c0,0.5,0.2,0.9,0.5,1.2c0.4,0.3,0.9,0.5,1.7,0.6l1.6,0.3c1.2,0.2,2.1,0.5,2.7,1   c0.6,0.5,0.8,1.2,0.8,2c0,0.5-0.1,0.9-0.3,1.4c-0.2,0.4-0.5,0.8-0.9,1.1c-0.4,0.3-0.8,0.5-1.4,0.7c-0.5,0.2-1.1,0.2-1.7,0.2   c-0.9,0-1.7-0.2-2.6-0.5S30.4,44.8,29.7,44.2z"
   class="st5" />
	<path
   id="path91"
   d="M39.8,49.4V38.1h1.2v0.9c0.3-0.3,0.7-0.6,1.2-0.7C42.6,38,43,38,43.5,38c0.6,0,1.1,0.1,1.6,0.3   c0.5,0.2,0.9,0.5,1.3,0.9c0.4,0.4,0.6,0.8,0.9,1.3s0.3,1,0.3,1.6s-0.1,1.1-0.3,1.6s-0.5,1-0.9,1.3s-0.8,0.7-1.3,0.9   c-0.5,0.2-1,0.3-1.6,0.3c-0.5,0-0.9-0.1-1.4-0.2c-0.4-0.2-0.8-0.4-1.2-0.7v4.1H39.8z M43.4,39c-0.5,0-1,0.1-1.4,0.3   c-0.4,0.2-0.8,0.5-1.1,0.8v4c0.3,0.3,0.6,0.6,1.1,0.8c0.4,0.2,0.9,0.3,1.4,0.3c0.8,0,1.5-0.3,2.1-0.9s0.9-1.3,0.9-2.2   c0-0.4-0.1-0.8-0.2-1.2s-0.4-0.7-0.6-1s-0.6-0.5-0.9-0.7C44.2,39.1,43.8,39,43.4,39z"
   class="st5" />
	<path
   id="path93"
   d="M51.4,46.2c-0.9,0-1.6-0.2-2.1-0.7c-0.5-0.4-0.8-1-0.8-1.7c0-0.7,0.3-1.3,0.9-1.8s1.4-0.7,2.3-0.7   c0.4,0,0.8,0,1.2,0.1c0.4,0.1,0.8,0.2,1.1,0.4v-1.1c0-0.6-0.2-1.1-0.5-1.4c-0.4-0.3-0.9-0.5-1.6-0.5c-0.4,0-0.8,0.1-1.2,0.2   c-0.4,0.1-0.8,0.3-1.3,0.5l-0.4-0.9c0.6-0.3,1.1-0.5,1.6-0.6c0.5-0.1,1-0.2,1.5-0.2c1,0,1.8,0.2,2.3,0.7c0.5,0.5,0.8,1.2,0.8,2.1   v5.4H54v-0.8c-0.4,0.3-0.8,0.5-1.2,0.7S51.9,46.2,51.4,46.2z M49.6,43.8c0,0.4,0.2,0.8,0.6,1.1c0.4,0.3,0.9,0.4,1.5,0.4   c0.5,0,0.9-0.1,1.3-0.2c0.4-0.1,0.8-0.4,1.1-0.7v-1.5c-0.3-0.2-0.7-0.4-1.1-0.5c-0.4-0.1-0.8-0.2-1.3-0.2c-0.6,0-1.1,0.1-1.5,0.4   C49.8,42.9,49.6,43.3,49.6,43.8z"
   class="st5" />
	<path
   id="path95"
   d="M60.5,45.2c0.4,0,0.8-0.1,1.2-0.3s0.8-0.4,1.1-0.8l0.7,0.8c-0.4,0.4-0.9,0.7-1.4,0.9c-0.5,0.2-1.1,0.3-1.7,0.3   c-0.6,0-1.1-0.1-1.6-0.3s-0.9-0.5-1.3-0.9c-0.4-0.4-0.7-0.8-0.9-1.3s-0.3-1.1-0.3-1.6s0.1-1.1,0.3-1.6s0.5-0.9,0.9-1.3   c0.4-0.4,0.8-0.7,1.3-0.9s1-0.3,1.6-0.3c0.6,0,1.1,0.1,1.7,0.3c0.5,0.2,1,0.5,1.4,0.9L62.8,40c-0.3-0.3-0.7-0.6-1.1-0.8   S60.9,39,60.5,39c-0.4,0-0.8,0.1-1.2,0.2s-0.7,0.4-0.9,0.7c-0.3,0.3-0.5,0.6-0.6,1c-0.1,0.4-0.2,0.8-0.2,1.2c0,0.4,0.1,0.8,0.2,1.2   c0.2,0.4,0.4,0.7,0.6,1c0.3,0.3,0.6,0.5,0.9,0.6C59.7,45.1,60.1,45.2,60.5,45.2z"
   class="st5" />
	<path
   id="path97"
   d="M71,45.2c-0.4,0.3-0.9,0.6-1.4,0.7s-1,0.2-1.6,0.2s-1.1-0.1-1.6-0.3c-0.5-0.2-0.9-0.5-1.3-0.9   s-0.7-0.8-0.9-1.3c-0.2-0.5-0.3-1.1-0.3-1.6c0-0.6,0.1-1.1,0.3-1.6c0.2-0.5,0.5-0.9,0.8-1.3c0.4-0.4,0.8-0.7,1.3-0.9   c0.5-0.2,1-0.3,1.5-0.3c0.5,0,1,0.1,1.5,0.3c0.5,0.2,0.9,0.5,1.2,0.9c0.3,0.4,0.6,0.8,0.8,1.3c0.2,0.5,0.3,1,0.3,1.6v0.4H65   c0.1,0.8,0.4,1.4,1,2s1.2,0.8,2,0.8c0.4,0,0.8-0.1,1.2-0.2s0.7-0.3,1-0.5L71,45.2z M67.8,39c-0.7,0-1.3,0.2-1.8,0.7   c-0.5,0.5-0.8,1.1-0.9,1.8h5.4c-0.1-0.7-0.4-1.3-0.9-1.8S68.5,39,67.8,39z"
   class="st5" />
	<path
   id="path99"
   d="M72.1,45l0.7-0.8c0.4,0.3,0.8,0.6,1.2,0.8c0.5,0.2,0.9,0.3,1.4,0.3c0.6,0,1.2-0.1,1.6-0.4   c0.4-0.3,0.6-0.6,0.6-1c0-0.3-0.1-0.6-0.4-0.8c-0.2-0.2-0.6-0.3-1.1-0.4l-1.4-0.2c-0.8-0.1-1.4-0.4-1.8-0.7s-0.6-0.8-0.6-1.4   c0-0.7,0.3-1.2,0.8-1.7s1.3-0.7,2.2-0.7c0.6,0,1.1,0.1,1.6,0.3c0.5,0.2,1,0.4,1.5,0.8l-0.6,0.8c-0.4-0.3-0.9-0.5-1.3-0.7   c-0.4-0.1-0.9-0.2-1.3-0.2c-0.5,0-1,0.1-1.3,0.4c-0.3,0.2-0.5,0.6-0.5,1c0,0.3,0.1,0.6,0.4,0.8c0.2,0.2,0.6,0.3,1.1,0.4l1.4,0.2   c0.8,0.1,1.4,0.3,1.8,0.7c0.4,0.4,0.6,0.9,0.6,1.5c0,0.3-0.1,0.7-0.2,1c-0.2,0.3-0.4,0.6-0.7,0.8c-0.3,0.2-0.6,0.4-1,0.5   c-0.4,0.1-0.8,0.2-1.3,0.2c-0.7,0-1.3-0.1-1.9-0.3S72.6,45.4,72.1,45z"
   class="st5" />
</g>
</svg>
