<?xml version="1.0" encoding="utf-8"?>
<!-- Generator: Adobe Illustrator 26.1.0, SVG Export Plug-In . SVG Version: 6.00 Build 0)  -->
<svg version="1.1" xmlns="http://www.w3.org/2000/svg" xmlns:xlink="http://www.w3.org/1999/xlink" x="0px" y="0px"
	 viewBox="0 0 121 50" style="enable-background:new 0 0 121 50;" xml:space="preserve">
<style type="text/css">
	.st0{display:none;}
	.st1{display:inline;}
	.st2{fill:#B73057;}
	.st3{fill:#CC2028;}
	.st4{fill:#88181B;}
	.st5{fill:#FFFFFF;}
</style>
<g id="CodeReady_Workspaces" class="st0">
	<g class="st1">
		<path class="st2" d="M42.6,26.5l1.2,1.2c-1.2,1.3-2.9,2-4.7,2c-3.4,0-6.1-2.6-6.1-6s2.7-6,6.1-6c1.9,0,3.6,0.8,4.7,2l-1.2,1.2
			c-0.9-1.1-2.1-1.6-3.5-1.6c-2.5,0-4.3,1.9-4.3,4.3s1.9,4.3,4.3,4.3C40.5,28,41.8,27.5,42.6,26.5z"/>
		<path class="st2" d="M48.9,20.9c2.5,0,4.3,2,4.3,4.3c0,2.5-2,4.3-4.3,4.3s-4.3-2-4.3-4.3l0,0C44.4,22.9,46.4,20.9,48.9,20.9
			C48.8,20.9,48.9,20.9,48.9,20.9z M51.6,25.2c0-1.6-1.2-2.9-2.7-2.9s-2.8,1.3-2.8,2.9s1.2,2.9,2.8,2.9
			C50.4,28.2,51.6,26.9,51.6,25.2z"/>
		<path class="st2" d="M61.3,28.6c-0.7,0.6-1.6,0.9-2.6,0.9c-2.3,0-4.2-1.9-4.2-4.3s1.9-4.3,4.3-4.3c0.9,0,1.8,0.2,2.6,0.8v-3.9
			l1.6-0.4v11.9h-1.6L61.3,28.6L61.3,28.6L61.3,28.6z M58.9,28.2c0.9,0,1.8-0.4,2.3-1.1v-3.9c-0.6-0.7-1.4-1.1-2.3-0.9
			c-1.6,0-2.8,1.3-2.8,2.9S57.3,28.2,58.9,28.2z"/>
		<path class="st2" d="M68.9,29.6c-2.5,0-4.4-1.9-4.4-4.3s1.9-4.3,4.2-4.3c2.3,0,4.1,1.9,4.1,4.4v0.5h-6.7c0.2,1.4,1.4,2.5,2.8,2.5
			c0.8,0,1.5-0.2,2.1-0.7l1.1,1.1C71.2,29.2,70,29.7,68.9,29.6z M66.2,24.5h5c-0.2-1.3-1.3-2.2-2.5-2.2
			C67.3,22.3,66.4,23.2,66.2,24.5z"/>
		<path class="st2" d="M74.5,17.9h5.3c2.3,0,3.9,1.4,3.9,3.4c0,1.5-0.9,2.7-2.3,3.2l2.6,5h-1.9l-2.3-4.8h-3.3v4.8h-1.8V17.9H74.5z
			 M76.2,19.4v3.9h3.4c1.4,0,2.2-0.8,2.2-2s-0.9-2-2.2-2h-3.4V19.4z"/>
		<path class="st2" d="M88.7,29.6c-2.5,0-4.4-1.9-4.4-4.3s1.9-4.3,4.2-4.3s4.1,1.9,4.1,4.4v0.5h-6.7c0.2,1.4,1.4,2.5,2.8,2.5
			c0.8,0,1.5-0.2,2.1-0.7l1.1,1.1C91.1,29.2,89.9,29.7,88.7,29.6z M85.9,24.5h5c-0.2-1.3-1.3-2.2-2.5-2.2
			C87.2,22.3,86.3,23.2,85.9,24.5z"/>
		<path class="st2" d="M93.6,27c0-1.6,1.3-2.6,3.4-2.6c0.8,0,1.5,0.1,2.3,0.5V24c0-1.2-0.7-1.8-2.1-1.8c-0.8,0-1.5,0.2-2.6,0.7
			L94,21.6c1.3-0.6,2.3-0.8,3.5-0.8c2.2,0,3.4,1.1,3.4,3v5.6h-1.6v-0.7c-0.7,0.6-1.6,0.9-2.6,0.8C94.9,29.6,93.6,28.5,93.6,27z
			 M97.1,28.4c0.8,0,1.6-0.2,2.2-0.8v-1.4c-0.7-0.4-1.4-0.6-2.2-0.5c-1.2,0-2,0.6-2,1.4C95.3,27.8,96,28.4,97.1,28.4z"/>
		<path class="st2" d="M109.3,28.6c-0.7,0.6-1.6,0.9-2.6,0.9c-2.3,0-4.2-1.9-4.2-4.3s1.9-4.3,4.3-4.3c0.9,0,1.8,0.4,2.6,0.8v-3.9
			l1.6-0.4v11.9h-1.6v-0.8L109.3,28.6L109.3,28.6z M106.9,28.2c0.9,0,1.8-0.4,2.3-1.1v-3.9c-0.6-0.7-1.4-1.1-2.3-0.9
			c-1.6,0-2.8,1.3-2.8,2.9S105.3,28.2,106.9,28.2z"/>
		<path class="st2" d="M115.2,29.4l-3.4-8.4h1.9l2.5,6.4l2.7-6.4h1.8l-4,9.5c-0.8,1.8-1.6,2.5-3.3,2.5c-0.4,0-0.6,0-0.8-0.1v-1.4
			c0.2,0,0.5,0.1,0.7,0.1c0.8,0,1.3-0.4,1.6-1.3L115.2,29.4z"/>
		<path class="st2" d="M35.5,46.6L33,35h1.3l2,9.6l2.8-9.6h1.3l2.8,9.5l2-9.5h1.3L44,46.6h-1.3l-2.9-9.8l-2.9,9.8H35.5z"/>
		<path class="st2" d="M51,38.2c2.3,0,4.2,1.9,4.2,4.3s-1.9,4.3-4.2,4.3s-4.2-1.9-4.2-4.3C46.8,40.1,48.7,38.2,51,38.2z M54,42.4
			c0-1.8-1.3-3.2-3-3.2c-1.6,0-3,1.4-3,3.2s1.3,3.3,3,3.3S54,44.3,54,42.4L54,42.4z"/>
		<path class="st2" d="M56.9,38.3h1.2v1.2c0.5-0.8,1.4-1.4,2.3-1.4c0.2,0,0.6,0,0.8,0.1v1.2c-0.2-0.1-0.6-0.1-0.8-0.1
			c-1.1,0-1.8,0.6-2.2,1.8v5.6H57L56.9,38.3z"/>
		<path class="st2" d="M62.7,35l1.2-0.2V42l4.3-3.7h1.5l-4.6,4l4.8,4.3h-1.6l-4.3-4v4h-1.2V35H62.7z"/>
		<path class="st2" d="M70.6,44.6c0.7,0.7,1.6,1.1,2.7,1.2c1.3,0,2.2-0.6,2.2-1.5c0-0.7-0.5-1.2-1.5-1.3l-1.4-0.2
			c-1.6-0.2-2.5-0.9-2.5-2.2c0-1.4,1.3-2.5,3.2-2.5c1.2,0,2.3,0.4,3.3,1.1L75.9,40c-0.9-0.6-1.8-0.9-2.7-0.9c-1.2,0-1.9,0.6-1.9,1.4
			c0,0.7,0.5,1.1,1.5,1.2l1.4,0.2c1.6,0.2,2.5,0.9,2.5,2.2c0,1.4-1.4,2.6-3.4,2.6c-1.4,0-2.6-0.5-3.5-1.3L70.6,44.6z"/>
		<path class="st2" d="M78.1,38.3h1.2v0.9c0.7-0.7,1.6-1.1,2.7-1.1c2.3,0,4.2,1.9,4.2,4.2s-1.9,4.3-4.2,4.3c-0.9,0-1.9-0.4-2.7-0.9
			V50h-1.2V38.3z M79.3,40.4v4.1c0.6,0.7,1.5,1.2,2.6,1.2c1.8,0,3-1.4,3-3.2s-1.3-3.2-3-3.2C80.8,39.3,79.8,39.7,79.3,40.4
			L79.3,40.4z"/>
		<path class="st2" d="M87.4,44.3c0-1.5,1.3-2.6,3.3-2.6c0.8,0,1.6,0.2,2.5,0.6v-1.1c0-1.3-0.7-2-2.2-2c-0.8,0-1.6,0.2-2.6,0.7
			L87.9,39c1.2-0.6,2.2-0.8,3.2-0.8c2.1,0,3.3,1.1,3.3,2.9v5.6h-1.2v-0.8c-0.7,0.6-1.8,0.9-2.7,0.9C88.6,46.7,87.4,45.7,87.4,44.3z
			 M90.7,45.8c0.9,0,1.8-0.4,2.5-0.9v-1.5c-0.7-0.5-1.4-0.7-2.3-0.7c-1.3,0-2.2,0.6-2.2,1.6C88.6,45.1,89.4,45.8,90.7,45.8z"/>
		<path class="st2" d="M102.6,44.6l0.7,0.8c-0.8,0.8-2,1.3-3.2,1.3c-2.3,0-4.2-1.9-4.2-4.3c0-2.5,1.9-4.3,4.2-4.3
			c1.2,0,2.3,0.5,3.3,1.3l-0.8,0.9c-0.6-0.7-1.5-1.1-2.5-1.1c-1.8,0-3,1.4-3,3.2s1.3,3.2,3,3.2C101.1,45.7,101.9,45.3,102.6,44.6z"
			/>
		<path class="st2" d="M108.4,46.7c-2.3,0-4.2-1.9-4.2-4.2v-0.1c0-2.3,1.8-4.2,4.1-4.2c2.2,0,3.9,1.9,3.9,4.2v0.4h-6.8
			c0.2,1.6,1.5,2.8,3.2,2.8c0.8,0,1.8-0.2,2.2-0.7l0.7,0.8C110.6,46.4,109.5,46.7,108.4,46.7z M105.4,41.8h5.5
			c-0.2-1.5-1.4-2.6-2.7-2.6C106.7,39.3,105.7,40.3,105.4,41.8L105.4,41.8z"/>
		<path class="st2" d="M113.8,44.6c0.7,0.7,1.6,1.1,2.7,1.2c1.3,0,2.2-0.6,2.2-1.5c0-0.7-0.5-1.2-1.5-1.3l-1.4-0.2
			c-1.6-0.2-2.5-0.9-2.5-2.2c0-1.4,1.3-2.5,3.2-2.5c1.2,0,2.3,0.4,3.3,1.1l-0.6,0.8c-0.9-0.6-1.8-0.9-2.7-0.9
			c-1.2,0-1.9,0.6-1.9,1.4c0,0.7,0.5,1.1,1.5,1.2l1.4,0.2c1.6,0.2,2.5,0.9,2.5,2.2c0,1.4-1.4,2.6-3.4,2.6c-1.4,0-2.6-0.5-3.5-1.3
			L113.8,44.6z"/>
		<path class="st2" d="M89.5,9.6c0,1.9,1.2,2.8,3.2,2.8c0.6,0,1.3-0.1,1.9-0.2V9.9c-0.4,0.1-0.8,0.2-1.2,0.2c-0.8,0-1.2-0.2-1.2-1.1
			V5.7h2.5V3.5h-2.5V0.6l-2.7,0.6v2.2h-1.9v2.2h1.8L89.5,9.6z M81.1,9.6c0-0.6,0.6-0.8,1.5-0.8c0.6,0,1.1,0.1,1.6,0.2v1.2
			c-0.5,0.2-1.1,0.5-1.6,0.5C81.6,10.5,81.1,10.2,81.1,9.6 M81.9,12.4c0.9,0,1.8-0.2,2.5-0.7v0.6h2.7V6.7c0-2.1-1.4-3.4-3.9-3.4
			c-1.4,0-2.7,0.4-4.1,0.9l0.9,2c1.1-0.5,1.9-0.7,2.7-0.7c1.2,0,1.6,0.5,1.6,1.3v0.5c-0.7-0.1-1.3-0.2-2-0.2c-2.2,0-3.6,0.9-3.6,2.7
			C78.7,11.2,80,12.4,81.9,12.4 M67.2,12.3h2.9V7.7h4.8v4.6h2.9V0.6h-2.9V5h-4.8V0.6h-2.9V12.3z M56.2,7.8c0-1.3,1.1-2.2,2.3-2.2
			c0.7,0,1.4,0.2,1.9,0.7v3C60,9.8,59.3,10,58.6,10C57.3,10,56.2,9.1,56.2,7.8 M60.6,12.3h2.6V0l-2.7,0.6v3.3
			c-0.7-0.4-1.5-0.6-2.2-0.6c-2.6,0-4.6,2-4.6,4.6c0,2.5,2,4.6,4.4,4.6c0,0,0,0,0.1,0c0.8,0,1.6-0.2,2.3-0.8L60.6,12.3z M48.3,5.5
			c0.8,0,1.5,0.6,1.9,1.4h-3.7C46.7,6,47.4,5.5,48.3,5.5 M43.7,7.8c0,2.6,2.1,4.6,4.8,4.6c1.5,0,2.6-0.4,3.7-1.3l-1.9-1.6
			c-0.5,0.5-1.1,0.7-1.8,0.7c-0.9,0-1.8-0.6-2.2-1.4h6.3V8.1c0-2.8-1.9-4.8-4.4-4.8C45.9,3.3,43.7,5.3,43.7,7.8L43.7,7.8 M39.1,3
			c0.9,0,1.5,0.6,1.5,1.3S40,5.6,39.1,5.6h-2.8V2.9L39.1,3L39.1,3z M33.4,12.3h2.9V8.1h2.2l2.2,4.2h3.2l-2.6-4.7
			c1.3-0.6,2.2-1.9,2.2-3.3c0-2.1-1.6-3.7-4.1-3.7h-6L33.4,12.3z"/>
	</g>
	<g id="g622" transform="matrix(0.06159216,0,0,0.06141563,-47.414261,-21.311838)" class="st1">
		<path id="path612" class="st3" d="M1172.6,528.4c0.8,0.1,1.6,0.1,2.4,0.2C1174.2,528.6,1173.4,528.5,1172.6,528.4L1172.6,528.4z"
			/>
		<path id="path614" class="st3" d="M1175.7,528.7L1175.7,528.7c-0.1,0-0.1,0-0.2,0C1175.6,528.7,1175.6,528.7,1175.7,528.7z"/>
		<path id="path616" class="st3" d="M1024.1,599.2c-11.6,2.9-23.1,5.9-34.6,9.1c-5.1,1.4-10.5,2.2-16.1,2.2c-20.2,0-38-10-48.9-25.3
			c0-0.1-0.1-0.1-0.1-0.2c-0.2-0.3-0.4-0.6-0.6-0.9c-0.1-0.2-0.2-0.3-0.4-0.5c-0.1-0.2-0.2-0.4-0.4-0.6c-0.2-0.3-0.4-0.6-0.6-0.9
			c0-0.1-0.1-0.1-0.1-0.2c-5.7-9.2-9-20-9-31.6c0-0.7,0-1.4,0-2.1c-4,47.1,17.3,90.7,52.8,117c18.5,13.7,40.9,22.8,65.5,25.3
			c70.8,7,134.1-43.4,143.6-113.4c0.2-1.6,0.4-3.1,0.6-4.7C1124.6,577.4,1074,586.8,1024.1,599.2z"/>
		<path id="path618" class="st4" d="M1031.6,690.6c-24.6-2.4-47-11.5-65.5-25.3c-35.5-26.4-56.8-69.9-52.8-117
			c0.1-3.8,0.6-7.5,1.4-11.1c6-26.8,30-46.9,58.6-46.9c7.9,0,15.5,1.5,22.4,4.3c9.6,3,19.2,5.8,28.9,8.4c48.4,13,98,21.1,148,25.4
			l0,0c-68.4-6.3-133.2-33.6-185.5-78.2l0,0c-2.3-1.9-4.6-3.8-7-5.6c-21.9-16.3-49.1-26-78.6-26c-72.8,0-131.7,58.9-131.8,131.7
			c0,0.1,0,0.1,0,0.2v0.1l0,0c0,112.4,91.1,203.5,203.5,203.5l0,0c103.4,0,188.7-77,201.8-176.8
			C1165.7,647.2,1102.4,697.7,1031.6,690.6z"/>
		<path id="path620" class="st3" d="M973.3,347L973.3,347c-21.6,0-42.5,3.4-62,9.6c-82,26.2-141.4,103-141.5,193.7
			c0.1-72.7,59-131.7,131.8-131.7c29.4,0,56.6,9.7,78.6,26l7,5.6c52.3,44.7,117.1,72,185.5,78.2c0.8,0.1,1.6,0.1,2.4,0.2
			c0.2,0,0.3,0,0.5,0c0.1,0,0.1,0,0.2,0C1164.8,426.6,1078.4,347,973.3,347z"/>
	</g>
</g>
<g id="CodeReady_Workspaces_copy">
	
		<g id="g622_00000166647444454697241410000000604193859778313098_" transform="matrix(0.06159216,0,0,0.06141563,-47.414261,-21.311838)">
		<path id="path612_00000129180577315849276420000013302812622488587397_" class="st3" d="M1172.6,528.4c0.8,0.1,1.6,0.1,2.4,0.2
			C1174.2,528.6,1173.4,528.5,1172.6,528.4L1172.6,528.4z"/>
		<path id="path614_00000122716843449005113440000015969431402059248280_" class="st3" d="M1175.7,528.7L1175.7,528.7
			c-0.1,0-0.1,0-0.2,0C1175.6,528.7,1175.6,528.7,1175.7,528.7z"/>
		<path id="path616_00000128455926270943077870000003329453259146374049_" class="st3" d="M1024.1,599.2
			c-11.6,2.9-23.1,5.9-34.6,9.1c-5.1,1.4-10.5,2.2-16.1,2.2c-20.2,0-38-10-48.9-25.3c0-0.1-0.1-0.1-0.1-0.2
			c-0.2-0.3-0.4-0.6-0.6-0.9c-0.1-0.2-0.2-0.3-0.4-0.5c-0.1-0.2-0.2-0.4-0.4-0.6c-0.2-0.3-0.4-0.6-0.6-0.9c0-0.1-0.1-0.1-0.1-0.2
			c-5.7-9.2-9-20-9-31.6c0-0.7,0-1.4,0-2.1c-4,47.1,17.3,90.7,52.8,117c18.5,13.7,40.9,22.8,65.5,25.3
			c70.8,7,134.1-43.4,143.6-113.4c0.2-1.6,0.4-3.1,0.6-4.7C1124.6,577.4,1074,586.8,1024.1,599.2z"/>
		<path id="path618_00000143579167673539347000000007346589965359738542_" class="st4" d="M1031.6,690.6
			c-24.6-2.4-47-11.5-65.5-25.3c-35.5-26.4-56.8-69.9-52.8-117c0.1-3.8,0.6-7.5,1.4-11.1c6-26.8,30-46.9,58.6-46.9
			c7.9,0,15.5,1.5,22.4,4.3c9.6,3,19.2,5.8,28.9,8.4c48.4,13,98,21.1,148,25.4l0,0c-68.4-6.3-133.2-33.6-185.5-78.2l0,0
			c-2.3-1.9-4.6-3.8-7-5.6c-21.9-16.3-49.1-26-78.6-26c-72.8,0-131.7,58.9-131.8,131.7c0,0.1,0,0.1,0,0.2v0.1l0,0
			c0,112.4,91.1,203.5,203.5,203.5l0,0c103.4,0,188.7-77,201.8-176.8C1165.7,647.2,1102.4,697.7,1031.6,690.6z"/>
		<path id="path620_00000138565531881572726980000001054793518383281318_" class="st3" d="M973.3,347L973.3,347
			c-21.6,0-42.5,3.4-62,9.6c-82,26.2-141.4,103-141.5,193.7c0.1-72.7,59-131.7,131.8-131.7c29.4,0,56.6,9.7,78.6,26l7,5.6
			c52.3,44.7,117.1,72,185.5,78.2c0.8,0.1,1.6,0.1,2.4,0.2c0.2,0,0.3,0,0.5,0c0.1,0,0.1,0,0.2,0C1164.8,426.6,1078.4,347,973.3,347z
			"/>
	</g>
</g>
<g id="Layer_2">
	<path class="st5" d="M89.5,9.6c0,1.9,1.1,2.8,3.2,2.8c0.6,0,1.3-0.1,1.9-0.3V10c-0.4,0.1-0.8,0.2-1.2,0.2c-0.9,0-1.2-0.3-1.2-1.1
		V5.7h2.5V3.5h-2.5V0.6l-2.7,0.6v2.3h-1.8v2.2h1.8V9.6z M81.1,9.7c0-0.6,0.6-0.9,1.5-0.9c0.5,0,1.1,0.1,1.6,0.2v1.1
		c-0.5,0.3-1.1,0.4-1.7,0.4C81.6,10.6,81.1,10.2,81.1,9.7 M81.9,12.4c1,0,1.7-0.2,2.4-0.7v0.5H87V6.6c0-2.2-1.5-3.3-3.9-3.3
		c-1.4,0-2.7,0.3-4.1,1l1,2c1-0.4,1.9-0.7,2.7-0.7c1.1,0,1.7,0.4,1.7,1.3v0.4c-0.6-0.2-1.3-0.3-2-0.2c-2.3,0-3.6,1-3.6,2.7
		C78.7,11.3,80,12.5,81.9,12.4 M67.3,12.3h2.9V7.7h4.8v4.6h2.9V0.6h-2.9v4.5h-4.8V0.6h-2.9L67.3,12.3z M56.3,7.9
		c0-1.3,1-2.2,2.3-2.2c0.7,0,1.4,0.2,1.9,0.7v3.1c-0.5,0.5-1.2,0.7-1.9,0.7C57.3,10.1,56.3,9.2,56.3,7.9 M60.6,12.3h2.7V0l-2.7,0.6
		v3.3c-0.7-0.4-1.5-0.6-2.2-0.6c-2.6,0-4.6,2-4.6,4.5c0,2.5,2,4.5,4.4,4.5c0,0,0,0,0.1,0c0.9,0,1.7-0.3,2.4-0.8V12.3z M48.3,5.5
		c0.9,0,1.6,0.6,1.8,1.4h-3.7C46.7,6,47.4,5.5,48.3,5.5 M43.7,7.9c0,2.6,2.1,4.6,4.8,4.6c1.5,0,2.6-0.4,3.7-1.3l-1.8-1.6
		c-0.4,0.4-1,0.7-1.8,0.7c-0.9,0-1.8-0.5-2.2-1.4h6.3V8.1c0-2.8-1.9-4.8-4.5-4.8c-2.5,0-4.6,2-4.6,4.5C43.7,7.8,43.7,7.9,43.7,7.9
		 M39.1,3.1c1,0,1.5,0.6,1.5,1.3S40,5.7,39.1,5.7h-2.8V3.1H39.1z M33.4,12.3h2.9V8h2.2l2.2,4.3h3.2l-2.6-4.7
		c1.3-0.6,2.2-1.8,2.2-3.3c0-2.1-1.7-3.7-4.1-3.7h-6L33.4,12.3L33.4,12.3z"/>
	<g>
		<path class="st5" d="M45.1,23.9c0,0.8-0.2,1.6-0.5,2.3c-0.3,0.7-0.7,1.4-1.3,1.9c-0.5,0.5-1.2,0.9-1.9,1.3
			c-0.7,0.3-1.5,0.5-2.3,0.5c-0.8,0-1.6-0.2-2.3-0.5c-0.7-0.3-1.4-0.7-1.9-1.3c-0.5-0.5-1-1.2-1.3-1.9c-0.3-0.7-0.5-1.5-0.5-2.3
			c0-0.8,0.2-1.6,0.5-2.3c0.3-0.7,0.7-1.4,1.3-1.9c0.5-0.5,1.2-0.9,1.9-1.3c0.7-0.3,1.5-0.5,2.3-0.5c0.8,0,1.6,0.2,2.3,0.5
			c0.7,0.3,1.4,0.7,1.9,1.3c0.5,0.5,1,1.2,1.3,1.9C45,22.3,45.1,23.1,45.1,23.9z M43.4,23.9c0-0.6-0.1-1.2-0.3-1.7
			c-0.2-0.5-0.5-1-0.9-1.4c-0.4-0.4-0.8-0.7-1.3-0.9c-0.5-0.2-1.1-0.3-1.7-0.3c-0.6,0-1.1,0.1-1.7,0.3c-0.5,0.2-1,0.5-1.3,0.9
			c-0.4,0.4-0.7,0.8-0.9,1.4c-0.2,0.5-0.3,1.1-0.3,1.7s0.1,1.2,0.3,1.7c0.2,0.5,0.5,1,0.9,1.4c0.4,0.4,0.8,0.7,1.3,0.9
			c0.5,0.2,1.1,0.3,1.7,0.3c0.6,0,1.1-0.1,1.7-0.3c0.5-0.2,1-0.5,1.3-0.9c0.4-0.4,0.7-0.8,0.9-1.4C43.3,25.1,43.4,24.5,43.4,23.9z"
			/>
		<path class="st5" d="M46.8,33V21.3h1.6v0.8c0.3-0.3,0.7-0.5,1.2-0.7c0.4-0.2,0.9-0.2,1.4-0.2c0.6,0,1.1,0.1,1.7,0.3
			c0.5,0.2,1,0.5,1.3,0.9c0.4,0.4,0.7,0.8,0.9,1.4c0.2,0.5,0.3,1.1,0.3,1.7c0,0.6-0.1,1.2-0.3,1.7c-0.2,0.5-0.5,1-0.9,1.4
			c-0.4,0.4-0.8,0.7-1.4,0.9c-0.5,0.2-1.1,0.3-1.7,0.3c-0.5,0-0.9-0.1-1.3-0.2c-0.4-0.1-0.8-0.3-1.2-0.6V33H46.8z M50.7,22.6
			c-0.5,0-0.9,0.1-1.3,0.3c-0.4,0.2-0.7,0.4-1,0.7v3.8c0.3,0.3,0.6,0.5,1,0.7c0.4,0.2,0.9,0.3,1.3,0.3c0.8,0,1.5-0.3,2-0.8
			c0.5-0.5,0.8-1.2,0.8-2.1c0-0.8-0.3-1.5-0.8-2.1C52.2,22.8,51.5,22.6,50.7,22.6z"/>
		<path class="st5" d="M64,28.7c-0.5,0.4-1,0.6-1.5,0.8c-0.5,0.2-1.1,0.3-1.7,0.3c-0.6,0-1.2-0.1-1.7-0.3c-0.5-0.2-1-0.5-1.4-0.9
			c-0.4-0.4-0.7-0.8-0.9-1.4c-0.2-0.5-0.3-1.1-0.3-1.7c0-0.6,0.1-1.2,0.3-1.7c0.2-0.5,0.5-1,0.9-1.4c0.4-0.4,0.8-0.7,1.3-0.9
			c0.5-0.2,1.1-0.3,1.6-0.3c0.6,0,1.1,0.1,1.6,0.3c0.5,0.2,0.9,0.5,1.3,0.9c0.4,0.4,0.6,0.9,0.8,1.4c0.2,0.5,0.3,1.1,0.3,1.7V26H58
			c0.1,0.7,0.4,1.3,1,1.7c0.5,0.5,1.1,0.7,1.9,0.7c0.4,0,0.8-0.1,1.2-0.2c0.4-0.1,0.7-0.3,1-0.5L64,28.7z M60.5,22.5
			c-0.6,0-1.2,0.2-1.6,0.6c-0.5,0.4-0.8,1-0.9,1.6h5c-0.1-0.6-0.4-1.2-0.9-1.6C61.7,22.7,61.1,22.5,60.5,22.5z"/>
		<path class="st5" d="M66.2,29.6v-8.3h1.6v0.8c0.3-0.3,0.7-0.6,1.1-0.7c0.4-0.2,0.9-0.3,1.4-0.3c1,0,1.7,0.3,2.3,0.9
			c0.6,0.6,0.9,1.4,0.9,2.4v5.2h-1.6v-5c0-0.7-0.2-1.2-0.6-1.6c-0.4-0.4-0.9-0.6-1.5-0.6c-0.4,0-0.8,0.1-1.2,0.3
			c-0.4,0.2-0.6,0.5-0.9,0.8v6H66.2z"/>
		<path class="st5" d="M74.6,27.7l1.1-1.2c0.6,0.6,1.3,1.1,1.9,1.4c0.7,0.3,1.3,0.5,2,0.5c0.8,0,1.5-0.2,2-0.5s0.8-0.8,0.8-1.4
			c0-0.5-0.2-0.9-0.5-1.2c-0.4-0.3-1-0.5-1.8-0.6l-1.9-0.3c-1-0.2-1.8-0.5-2.4-1c-0.5-0.5-0.8-1.2-0.8-2c0-1,0.4-1.8,1.2-2.4
			C77,18.3,78,18,79.3,18c0.8,0,1.6,0.1,2.4,0.4c0.8,0.3,1.5,0.7,2.2,1.2l-1,1.3c-0.6-0.5-1.2-0.8-1.9-1.1c-0.6-0.2-1.3-0.4-1.9-0.4
			c-0.7,0-1.3,0.2-1.8,0.5c-0.5,0.3-0.7,0.7-0.7,1.2c0,0.5,0.2,0.8,0.5,1.1c0.3,0.2,0.8,0.4,1.6,0.5l1.9,0.3
			c1.2,0.2,2.1,0.6,2.7,1.1c0.6,0.5,0.9,1.2,0.9,2.1c0,0.5-0.1,1-0.3,1.4c-0.2,0.4-0.5,0.8-0.9,1.1c-0.4,0.3-0.9,0.5-1.5,0.7
			c-0.6,0.2-1.2,0.3-1.9,0.3c-0.9,0-1.8-0.2-2.7-0.5C76,28.9,75.3,28.4,74.6,27.7z"/>
		<path class="st5" d="M85.5,29.6V18.1l1.6-0.4v4.3c0.3-0.3,0.7-0.6,1.1-0.7c0.4-0.2,0.9-0.3,1.4-0.3c1,0,1.7,0.3,2.3,0.9
			c0.6,0.6,0.9,1.4,0.9,2.4v5.2h-1.6v-5c0-0.7-0.2-1.2-0.6-1.6c-0.4-0.4-0.9-0.6-1.5-0.6c-0.4,0-0.8,0.1-1.2,0.3
			c-0.4,0.2-0.6,0.5-0.9,0.8v6H85.5z"/>
		<path class="st5" d="M95.6,19.9c-0.3,0-0.5-0.1-0.7-0.3c-0.2-0.2-0.3-0.4-0.3-0.7c0-0.3,0.1-0.5,0.3-0.7c0.2-0.2,0.4-0.3,0.7-0.3
			c0.3,0,0.5,0.1,0.7,0.3c0.2,0.2,0.3,0.4,0.3,0.7c0,0.3-0.1,0.5-0.3,0.7C96.1,19.8,95.9,19.9,95.6,19.9z M96.5,21.3v8.3h-1.6v-8.3
			H96.5z"/>
		<path class="st5" d="M97.7,21.3h1.9V20c0-0.9,0.2-1.5,0.7-2c0.5-0.5,1.2-0.7,2.1-0.7c0.2,0,0.4,0,0.6,0c0.2,0,0.4,0.1,0.6,0.1v1.4
			c-0.2-0.1-0.4-0.1-0.5-0.1c-0.2,0-0.3,0-0.5,0c-0.4,0-0.8,0.1-1,0.3c-0.2,0.2-0.3,0.5-0.3,1v1.2h2.4v1.4h-2.4v7h-1.6v-7h-1.9V21.3
			z"/>
		<path class="st5" d="M106.1,27.6v-4.9h-1.8v-1.4h1.8v-2.1l1.6-0.4v2.5h2.5v1.4h-2.5v4.5c0,0.4,0.1,0.7,0.3,0.9
			c0.2,0.2,0.5,0.3,0.9,0.3c0.2,0,0.4,0,0.6,0c0.2,0,0.4-0.1,0.6-0.2v1.4c-0.2,0.1-0.5,0.1-0.8,0.2c-0.3,0-0.6,0.1-0.8,0.1
			c-0.8,0-1.4-0.2-1.9-0.6C106.4,28.8,106.1,28.3,106.1,27.6z"/>
		<path class="st5" d="M33.7,46.5V35h4.1c0.9,0,1.7,0.1,2.4,0.4c0.7,0.3,1.4,0.7,1.9,1.2s1,1.1,1.3,1.8c0.3,0.7,0.5,1.5,0.5,2.3
			c0,0.8-0.2,1.6-0.5,2.3c-0.3,0.7-0.7,1.3-1.3,1.8c-0.5,0.5-1.2,0.9-1.9,1.2c-0.7,0.3-1.5,0.4-2.4,0.4H33.7z M37.7,36.6h-2.4V45
			h2.4c0.6,0,1.1-0.1,1.7-0.3c0.5-0.2,1-0.5,1.4-0.9c0.4-0.4,0.7-0.8,0.9-1.3s0.3-1.1,0.3-1.6c0-0.6-0.1-1.1-0.3-1.7
			c-0.2-0.5-0.5-1-0.9-1.3c-0.4-0.4-0.8-0.7-1.4-0.9C38.9,36.7,38.3,36.6,37.7,36.6z"/>
		<path class="st5" d="M52.3,45.6c-0.5,0.4-1,0.6-1.5,0.8c-0.5,0.2-1.1,0.3-1.7,0.3c-0.6,0-1.2-0.1-1.7-0.3c-0.5-0.2-1-0.5-1.4-0.9
			c-0.4-0.4-0.7-0.8-0.9-1.4c-0.2-0.5-0.3-1.1-0.3-1.7c0-0.6,0.1-1.2,0.3-1.7c0.2-0.5,0.5-1,0.9-1.4c0.4-0.4,0.8-0.7,1.3-0.9
			c0.5-0.2,1.1-0.3,1.6-0.3c0.6,0,1.1,0.1,1.6,0.3c0.5,0.2,0.9,0.5,1.3,0.9c0.4,0.4,0.6,0.9,0.8,1.4c0.2,0.5,0.3,1.1,0.3,1.7v0.5
			h-6.6c0.1,0.7,0.4,1.3,1,1.7c0.5,0.5,1.1,0.7,1.9,0.7c0.4,0,0.8-0.1,1.2-0.2c0.4-0.1,0.7-0.3,1-0.5L52.3,45.6z M48.8,39.4
			c-0.6,0-1.2,0.2-1.6,0.6c-0.5,0.4-0.8,1-0.9,1.6h5c-0.1-0.6-0.4-1.2-0.9-1.6C50,39.6,49.4,39.4,48.8,39.4z"/>
		<path class="st5" d="M56.5,46.5l-3.6-8.3h1.8l2.6,6.2l2.6-6.2h1.8l-3.6,8.3H56.5z"/>
		<path class="st5" d="M64.6,44.6l1-1.2c0.6,0.6,1.3,1.1,1.9,1.4c0.7,0.3,1.3,0.5,2,0.5c0.8,0,1.5-0.2,2-0.5
			c0.5-0.4,0.8-0.8,0.8-1.4c0-0.5-0.2-0.9-0.5-1.2c-0.4-0.3-1-0.5-1.8-0.6l-1.9-0.3c-1.1-0.2-1.8-0.5-2.4-1c-0.5-0.5-0.8-1.2-0.8-2
			c0-1,0.4-1.8,1.2-2.4c0.8-0.6,1.8-0.9,3.1-0.9c0.8,0,1.6,0.1,2.4,0.4c0.8,0.3,1.5,0.7,2.2,1.2l-1,1.3c-0.6-0.5-1.2-0.8-1.9-1.1
			c-0.6-0.2-1.3-0.4-1.9-0.4c-0.7,0-1.3,0.2-1.8,0.5c-0.5,0.3-0.7,0.7-0.7,1.2c0,0.5,0.2,0.8,0.5,1.1c0.3,0.2,0.8,0.4,1.6,0.5
			l1.9,0.3c1.2,0.2,2.1,0.6,2.7,1.1c0.6,0.5,0.9,1.2,0.9,2.1c0,0.5-0.1,1-0.3,1.4c-0.2,0.4-0.5,0.8-0.9,1.1
			c-0.4,0.3-0.9,0.5-1.5,0.7c-0.6,0.2-1.2,0.3-1.9,0.3c-0.9,0-1.8-0.2-2.7-0.5C66,45.8,65.3,45.3,64.6,44.6z"/>
		<path class="st5" d="M75.2,49.9V38.2h1.6V39c0.3-0.3,0.7-0.5,1.2-0.7c0.4-0.2,0.9-0.2,1.4-0.2c0.6,0,1.1,0.1,1.7,0.3
			c0.5,0.2,1,0.5,1.3,0.9c0.4,0.4,0.7,0.8,0.9,1.4c0.2,0.5,0.3,1.1,0.3,1.7c0,0.6-0.1,1.2-0.3,1.7c-0.2,0.5-0.5,1-0.9,1.4
			c-0.4,0.4-0.8,0.7-1.4,0.9c-0.5,0.2-1.1,0.3-1.7,0.3c-0.5,0-0.9-0.1-1.3-0.2s-0.8-0.3-1.2-0.6v4.1H75.2z M79.2,39.5
			c-0.5,0-0.9,0.1-1.3,0.3c-0.4,0.2-0.7,0.4-1,0.7v3.8c0.3,0.3,0.6,0.5,1,0.7s0.9,0.3,1.3,0.3c0.8,0,1.5-0.3,2-0.8
			c0.5-0.5,0.8-1.2,0.8-2.1c0-0.8-0.3-1.5-0.8-2.1C80.6,39.7,79.9,39.5,79.2,39.5z"/>
		<path class="st5" d="M87.5,46.7c-0.9,0-1.6-0.2-2.2-0.7c-0.6-0.5-0.9-1.1-0.9-1.8c0-0.8,0.3-1.4,0.9-1.9c0.6-0.5,1.4-0.7,2.5-0.7
			c0.4,0,0.8,0,1.2,0.1c0.4,0.1,0.7,0.2,1.1,0.3v-0.9c0-0.6-0.2-1-0.5-1.3c-0.4-0.3-0.9-0.4-1.5-0.4c-0.4,0-0.8,0.1-1.2,0.2
			c-0.4,0.1-0.9,0.3-1.4,0.5l-0.6-1.2c0.6-0.3,1.2-0.5,1.8-0.6c0.6-0.1,1.1-0.2,1.7-0.2c1.1,0,1.9,0.3,2.5,0.8
			c0.6,0.5,0.9,1.3,0.9,2.2v5.5h-1.6v-0.7c-0.4,0.3-0.8,0.5-1.2,0.7C88.5,46.6,88,46.7,87.5,46.7z M86.1,44.1c0,0.4,0.2,0.7,0.5,1
			c0.3,0.3,0.8,0.4,1.4,0.4c0.4,0,0.8-0.1,1.2-0.2s0.7-0.3,1-0.6v-1.4c-0.3-0.2-0.7-0.3-1-0.4c-0.4-0.1-0.7-0.1-1.1-0.1
			c-0.6,0-1.1,0.1-1.4,0.4C86.2,43.3,86.1,43.7,86.1,44.1z"/>
		<path class="st5" d="M97.3,45.2c0.4,0,0.8-0.1,1.2-0.3c0.4-0.2,0.7-0.4,1.1-0.8l1,1.1c-0.4,0.4-0.9,0.8-1.5,1
			c-0.6,0.2-1.2,0.4-1.8,0.4c-0.6,0-1.2-0.1-1.7-0.3c-0.5-0.2-1-0.5-1.4-0.9c-0.4-0.4-0.7-0.8-0.9-1.4c-0.2-0.5-0.3-1.1-0.3-1.7
			c0-0.6,0.1-1.2,0.3-1.7c0.2-0.5,0.5-1,0.9-1.4c0.4-0.4,0.8-0.7,1.4-0.9c0.5-0.2,1.1-0.3,1.7-0.3c0.6,0,1.2,0.1,1.8,0.4
			c0.6,0.2,1.1,0.6,1.5,1l-1,1.1c-0.3-0.3-0.7-0.6-1.1-0.8c-0.4-0.2-0.8-0.3-1.2-0.3c-0.8,0-1.4,0.3-1.9,0.8c-0.5,0.6-0.8,1.2-0.8,2
			c0,0.8,0.3,1.5,0.8,2.1C95.9,45,96.5,45.2,97.3,45.2z"/>
		<path class="st5" d="M108.4,45.6c-0.5,0.4-1,0.6-1.5,0.8c-0.5,0.2-1.1,0.3-1.7,0.3c-0.6,0-1.2-0.1-1.7-0.3c-0.5-0.2-1-0.5-1.4-0.9
			c-0.4-0.4-0.7-0.8-0.9-1.4c-0.2-0.5-0.3-1.1-0.3-1.7c0-0.6,0.1-1.2,0.3-1.7s0.5-1,0.9-1.4c0.4-0.4,0.8-0.7,1.3-0.9
			c0.5-0.2,1.1-0.3,1.6-0.3c0.6,0,1.1,0.1,1.6,0.3c0.5,0.2,0.9,0.5,1.3,0.9c0.4,0.4,0.6,0.9,0.8,1.4c0.2,0.5,0.3,1.1,0.3,1.7v0.5
			h-6.6c0.1,0.7,0.4,1.3,1,1.7c0.5,0.5,1.1,0.7,1.9,0.7c0.4,0,0.8-0.1,1.2-0.2c0.4-0.1,0.7-0.3,1-0.5L108.4,45.6z M105,39.4
			c-0.6,0-1.2,0.2-1.6,0.6c-0.5,0.4-0.8,1-0.9,1.6h5c-0.1-0.6-0.4-1.2-0.9-1.6C106.1,39.6,105.6,39.4,105,39.4z"/>
		<path class="st5" d="M109.6,45.4l0.9-1.1c0.4,0.3,0.9,0.6,1.3,0.8c0.5,0.2,0.9,0.3,1.4,0.3c0.6,0,1.1-0.1,1.4-0.3
			c0.4-0.2,0.6-0.5,0.6-0.9c0-0.3-0.1-0.5-0.3-0.7c-0.2-0.2-0.6-0.3-1-0.4l-1.5-0.2c-0.8-0.1-1.4-0.4-1.9-0.8
			c-0.4-0.4-0.6-0.9-0.6-1.6c0-0.8,0.3-1.4,0.9-1.8c0.6-0.5,1.4-0.7,2.4-0.7c0.6,0,1.2,0.1,1.7,0.3c0.6,0.2,1.1,0.4,1.6,0.8
			l-0.8,1.1c-0.5-0.3-0.9-0.5-1.3-0.7c-0.4-0.1-0.9-0.2-1.3-0.2c-0.5,0-0.9,0.1-1.2,0.3c-0.3,0.2-0.5,0.5-0.5,0.8
			c0,0.3,0.1,0.5,0.3,0.7c0.2,0.2,0.6,0.3,1.1,0.4l1.5,0.2c0.8,0.1,1.4,0.4,1.9,0.8c0.4,0.4,0.6,0.9,0.6,1.6c0,0.4-0.1,0.7-0.3,1
			c-0.2,0.3-0.4,0.6-0.7,0.8c-0.3,0.2-0.7,0.4-1.1,0.5c-0.4,0.1-0.9,0.2-1.4,0.2c-0.7,0-1.4-0.1-2-0.3
			C110.6,46.2,110,45.8,109.6,45.4z"/>
	</g>
</g>
</svg>
