<?xml version="1.0" encoding="UTF-8" standalone="no"?>
<svg
   xmlns:dc="http://purl.org/dc/elements/1.1/"
   xmlns:cc="http://creativecommons.org/ns#"
   xmlns:rdf="http://www.w3.org/1999/02/22-rdf-syntax-ns#"
   xmlns:svg="http://www.w3.org/2000/svg"
   xmlns="http://www.w3.org/2000/svg"
   class="ng-scope"
   height="125"
   xml:space="preserve"
   viewBox="0 0 310 125"
   width="150"
   id="logo-top-left"
   version="1.1"><defs
   id="defs11" />
<path
   id="path18"
   d="m 206.66668,-33.657865 c 24.552,0.03307 44.45813,19.922664 44.4912,44.491198 V 114.16667 c -0.033,24.55199 -19.92267,44.45812 -44.4912,44.4912 H 103.33333 C 78.781334,158.62479 58.875203,138.7352 58.84213,114.16667 V 10.833333 c 0.03305,-24.552001 19.922674,-44.458133 44.4912,-44.491198 h 103.33335 m 0,-7.175468 H 103.33333 c -28.536525,0 -51.666663,23.130133 -51.666663,51.666666 V 114.16667 c 0,28.53653 23.130138,51.66667 51.666663,51.66667 h 103.33335 c 28.53653,0 51.66666,-23.13014 51.66666,-51.66667 v 0 -103.333337 c 0,-28.536533 -23.13013,-51.666666 -51.66666,-51.666666 z"
   class="b"
   style="fill:#010101;stroke-width:1.65333" /><path
   id="path20"
   d="m 155.6944,129.22854 c -36.8528,0 -66.72853,-29.875743 -66.72853,-66.728542 0,-36.852798 29.85919,-66.7285324 66.72853,-66.7285324 36.86935,0 66.72855,29.8757344 66.72855,66.7285324 -0.033,36.836269 -29.89227,66.695462 -66.72855,66.728542 z m 0,-126.2981403 c -32.90133,0 -59.553063,26.6682663 -59.553063,59.5530653 0,32.884802 26.668273,59.553075 59.553063,59.553075 32.88481,0 59.55308,-26.668273 59.55308,-59.553075 C 215.21448,29.598666 188.56269,2.9634657 155.6944,2.9303997 Z"
   class="c"
   style="fill:#ed1c24;stroke-width:1.65333" /><path
   id="path22"
   d="m 195.87041,94.789597 h -80.36855 c -1.98397,0 -3.58773,-1.60374 -3.58773,-3.58773 V 33.798133 c 0,-1.984 1.60376,-3.587734 3.58773,-3.587734 h 80.36855 c 1.98402,0 3.58773,1.603734 3.58773,3.587734 v 57.403734 c 0,1.98399 -1.60371,3.58773 -3.58773,3.58773 z m -76.7808,-7.175467 h 73.19307 V 37.385866 h -73.19307 z"
   class="b"
   style="fill:#010101;stroke-width:1.65333" /><path
   id="path24"
   d="m 153.04907,78.355464 c -0.248,0 -0.496,-0.03311 -0.744,-0.08267 -1.93441,-0.413333 -3.1744,-2.314667 -2.76107,-4.249064 l 5.208,-24.485867 c 0.39681,-1.934399 2.28161,-3.190933 4.23255,-2.810667 1.95093,0.380267 3.19092,2.2816 2.81066,4.232534 v 0.06613 l -5.22453,24.485864 c -0.3472,1.653334 -1.81868,2.843734 -3.50509,2.843734 z"
   class="c"
   style="fill:#ed1c24;stroke-width:1.65333" /><path
   id="path26"
   d="m 170.07841,76.817864 c -1.98401,0 -3.58774,-1.60373 -3.58774,-3.58773 0,-0.958935 0.38028,-1.868268 1.05814,-2.546136 l 8.20053,-8.200533 -8.184,-8.183999 c -1.40531,-1.405333 -1.40531,-3.670401 0,-5.075733 1.40534,-1.405335 3.67041,-1.405335 5.07574,0 v 0 l 10.73013,10.730133 c 1.40534,1.405333 1.40534,3.670399 0,5.075733 v 0 L 172.64108,75.75973 c -0.67787,0.677867 -1.5872,1.058134 -2.54614,1.058134 z"
   class="c"
   style="fill:#ed1c24;stroke-width:1.65333" /><path
   id="path28"
   d="m 141.3104,76.817864 c -0.95893,0 -1.86827,-0.380267 -2.54613,-1.058134 L 128.03413,65.029599 c -1.40533,-1.405334 -1.40533,-3.6704 0,-5.075733 v 0 l 10.73014,-10.730133 c 1.40533,-1.405335 3.6704,-1.405335 5.07573,0 1.40534,1.405332 1.40534,3.6704 0,5.075733 v 0 l -8.184,8.183999 8.20053,8.200533 c 1.40533,1.405333 1.40533,3.670401 0,5.075732 -0.67787,0.677867 -1.5872,1.058134 -2.54613,1.058134 z"
   class="c"
   style="fill:#ed1c24;stroke-width:1.65333" /></svg>
