<?xml version="1.0" encoding="UTF-8" standalone="no"?>
<svg
   xmlns:osb="http://www.openswatchbook.org/uri/2009/osb"
   xmlns:dc="http://purl.org/dc/elements/1.1/"
   xmlns:cc="http://creativecommons.org/ns#"
   xmlns:rdf="http://www.w3.org/1999/02/22-rdf-syntax-ns#"
   xmlns:svg="http://www.w3.org/2000/svg"
   xmlns="http://www.w3.org/2000/svg"
   version="1.1"
   id="logo-top-left"
   width="150"
   viewBox="0 0 310 125"
   xml:space="preserve"
   height="125"
   class="ng-scope"><defs
   id="defs11"></defs>
<path
   style="fill:#010101;stroke-width:1.65333"
   class="b"
   d="m 206.66668,-33.657865 c 24.552,0.03307 44.45813,19.922664 44.4912,44.491198 V 114.16667 c -0.033,24.55199 -19.92267,44.45812 -44.4912,44.4912 H 103.33333 C 78.781334,158.62479 58.875203,138.7352 58.84213,114.16667 V 10.833333 c 0.03305,-24.552001 19.922674,-44.458133 44.4912,-44.491198 h 103.33335 m 0,-7.175468 H 103.33333 c -28.536525,0 -51.666663,23.130133 -51.666663,51.666666 V 114.16667 c 0,28.53653 23.130138,51.66667 51.666663,51.66667 h 103.33335 c 28.53653,0 51.66666,-23.13014 51.66666,-51.66667 v 0 -103.333337 c 0,-28.536533 -23.13013,-51.666666 -51.66666,-51.666666 z"
   id="path18" /><path
   style="fill:#ed1c24;stroke-width:1.65333"
   class="c"
   d="m 155.6944,129.22854 c -36.8528,0 -66.72853,-29.875743 -66.72853,-66.728542 0,-36.852798 29.85919,-66.7285324 66.72853,-66.7285324 36.86935,0 66.72855,29.8757344 66.72855,66.7285324 -0.033,36.836269 -29.89227,66.695462 -66.72855,66.728542 z m 0,-126.2981403 c -32.90133,0 -59.553063,26.6682663 -59.553063,59.5530653 0,32.884802 26.668273,59.553075 59.553063,59.553075 32.88481,0 59.55308,-26.668273 59.55308,-59.553075 C 215.21448,29.598666 188.56269,2.9634657 155.6944,2.9303997 Z"
   id="path20" /><path
   style="fill:#010101;stroke-width:1.65333"
   class="b"
   d="m 195.87041,94.789597 h -80.36855 c -1.98397,0 -3.58773,-1.60374 -3.58773,-3.58773 V 33.798133 c 0,-1.984 1.60376,-3.587734 3.58773,-3.587734 h 80.36855 c 1.98402,0 3.58773,1.603734 3.58773,3.587734 v 57.403734 c 0,1.98399 -1.60371,3.58773 -3.58773,3.58773 z m -76.7808,-7.175467 h 73.19307 V 37.385866 h -73.19307 z"
   id="path22" /><path
   style="fill:#ed1c24;stroke-width:1.65333"
   class="c"
   d="m 153.04907,78.355464 c -0.248,0 -0.496,-0.03311 -0.744,-0.08267 -1.93441,-0.413333 -3.1744,-2.314667 -2.76107,-4.249064 l 5.208,-24.485867 c 0.39681,-1.934399 2.28161,-3.190933 4.23255,-2.810667 1.95093,0.380267 3.19092,2.2816 2.81066,4.232534 v 0.06613 l -5.22453,24.485864 c -0.3472,1.653334 -1.81868,2.843734 -3.50509,2.843734 z"
   id="path24" /><path
   style="fill:#ed1c24;stroke-width:1.65333"
   class="c"
   d="m 170.07841,76.817864 c -1.98401,0 -3.58774,-1.60373 -3.58774,-3.58773 0,-0.958935 0.38028,-1.868268 1.05814,-2.546136 l 8.20053,-8.200533 -8.184,-8.183999 c -1.40531,-1.405333 -1.40531,-3.670401 0,-5.075733 1.40534,-1.405335 3.67041,-1.405335 5.07574,0 v 0 l 10.73013,10.730133 c 1.40534,1.405333 1.40534,3.670399 0,5.075733 v 0 L 172.64108,75.75973 c -0.67787,0.677867 -1.5872,1.058134 -2.54614,1.058134 z"
   id="path26" /><path
   style="fill:#ed1c24;stroke-width:1.65333"
   class="c"
   d="m 141.3104,76.817864 c -0.95893,0 -1.86827,-0.380267 -2.54613,-1.058134 L 128.03413,65.029599 c -1.40533,-1.405334 -1.40533,-3.6704 0,-5.075733 v 0 l 10.73014,-10.730133 c 1.40533,-1.405335 3.6704,-1.405335 5.07573,0 1.40534,1.405332 1.40534,3.6704 0,5.075733 v 0 l -8.184,8.183999 8.20053,8.200533 c 1.40533,1.405333 1.40533,3.670401 0,5.075732 -0.67787,0.677867 -1.5872,1.058134 -2.54613,1.058134 z"
   id="path28" /><path
   transform="matrix(2.0666667,0,0,2.0666667,0,-66.666667)"
   id="path837"
   d="m 46.860532,108.71338 c -4.619571,-0.71843 -8.751501,-2.83217 -12.04405,-6.16129 -2.67157,-2.701235 -4.3912,-5.628258 -5.446918,-9.271317 -0.849643,-2.931939 -0.823677,-1.875748 -0.774516,-31.504153 l 0.04501,-27.126736 0.32264,-1.403212 C 30.956082,24.577111 37.189384,18.369316 45.820543,16.45781 L 47.29456,16.131366 H 75 102.70544 l 1.47402,0.326444 c 4.77837,1.058245 8.59796,3.270757 11.84225,6.859669 2.44152,2.700866 4.16284,6.130509 5.02048,10.003064 l 0.32644,1.474017 V 62.5 90.20544 l -0.32644,1.474017 c -0.85764,3.872555 -2.57896,7.302198 -5.02048,10.003063 -3.2185,3.56037 -6.98668,5.75525 -11.76838,6.85482 l -1.40321,0.32266 -27.343754,0.0279 c -22.820598,0.0233 -27.559138,-0.006 -28.645834,-0.17456 z M 79.26794,94.600476 c 10.614097,-1.235001 20.198076,-8.005311 25.06333,-17.705221 1.32998,-2.651606 2.53183,-6.524708 3.03033,-9.765625 0.35467,-2.305754 0.35167,-7.120763 -0.006,-9.331598 -1.19686,-7.401948 -4.37026,-13.555536 -9.587299,-18.590856 -4.980726,-4.807238 -11.142724,-7.796217 -18.066523,-8.763465 -2.359125,-0.329568 -6.524299,-0.326683 -8.825232,0.0061 -12.56282,1.81703 -22.831379,10.573996 -26.472776,22.575827 -1.867042,6.153665 -1.862635,12.80521 0.01259,18.991726 1.011649,3.337526 2.888592,7.051136 4.951553,9.796858 7.047554,9.38002 18.19699,14.147917 29.89984,12.786234 z"
   style="fill:#ffffff;stroke:none;stroke-width:0.144676;fill-opacity:1" /><path
   transform="matrix(2.0666667,0,0,2.0666667,0,-66.666667)"
   id="path839"
   d="M 73.109562,91.144562 C 66.434905,90.638105 59.840303,87.596856 55.100268,82.839172 50.377409,78.098727 47.558917,72.270266 46.774957,65.622962 46.53563,63.593681 46.68076,59.380454 47.059566,57.360501 49.229467,45.789688 58.173379,36.652054 69.571562,34.360904 c 3.958816,-0.795763 7.715268,-0.798193 11.528458,-0.0075 4.402742,0.912987 8.910708,3.055385 12.344381,5.866632 8.726499,7.144629 12.529019,18.731484 9.685689,29.51372 -2.6432,10.023328 -10.490595,17.894459 -20.464529,20.526424 -2.98681,0.788173 -6.517391,1.114903 -9.555999,0.884342 z M 95.801969,77.899204 c 0.787036,-0.551263 0.754744,0.1076 0.754744,-15.399204 0,-15.506804 0.03229,-14.847942 -0.754744,-15.399204 C 95.513594,46.89881 93.355919,46.875 75.340599,46.875 h -20.139 l -0.440896,0.370989 c -0.242492,0.204044 -0.507541,0.610945 -0.588997,0.904225 -0.203644,0.733212 -0.203644,27.96636 0,28.699572 0.08146,0.29328 0.346505,0.700181 0.588997,0.904224 l 0.440896,0.37099 h 20.139 c 18.01532,0 20.172995,-0.02381 20.46137,-0.225796 z"
   style="fill:#ffffff;fill-opacity:1;stroke-width:0.144676" /><path
   transform="matrix(2.0666667,0,0,2.0666667,0,-66.666667)"
   id="path841"
   d="M 57.638889,62.5 V 50.347222 H 75.289352 92.939815 V 62.5 74.652778 H 75.289352 57.638889 Z m 17.500515,7.382227 c 0.220597,-0.157079 0.471668,-0.466324 0.557934,-0.687211 0.291994,-0.747651 2.630208,-12.055063 2.630208,-12.719469 0,-0.557204 -0.07635,-0.735921 -0.491898,-1.151473 -0.427319,-0.42732 -0.586204,-0.491898 -1.210234,-0.491898 -0.745316,0 -1.327477,0.311355 -1.626356,0.869816 -0.171138,0.319774 -2.746507,12.363347 -2.747331,12.847739 -7.23e-4,0.457035 0.241554,0.904086 0.70027,1.291853 0.507547,0.429047 1.613096,0.449588 2.187407,0.04064 z m -5.657847,-0.804208 c 0.239509,-0.201533 0.510044,-0.592382 0.601189,-0.868556 0.313735,-0.950625 0.111866,-1.287024 -2.146748,-3.577384 l -2.106257,-2.135861 2.034463,-2.059741 c 2.232045,-2.259779 2.519874,-2.732896 2.218377,-3.646441 -0.262226,-0.794553 -0.895381,-1.23448 -1.776698,-1.23448 H 67.56568 l -2.876636,2.857349 c -1.58215,1.571542 -2.969324,3.033153 -3.082609,3.248024 C 61.49315,61.8758 61.400463,62.253382 61.400463,62.5 c 0,0.246618 0.09269,0.6242 0.205972,0.839071 0.113285,0.214871 1.500459,1.676482 3.082609,3.248024 l 2.876636,2.857349 h 0.740203 c 0.581025,0 0.83385,-0.0788 1.175674,-0.366425 z m 13.735986,0.161757 c 0.214872,-0.112567 1.635848,-1.463478 3.157728,-3.002026 3.88514,-3.92769 3.885023,-3.55408 0.0023,-7.474243 -1.523158,-1.537855 -2.945181,-2.888766 -3.160052,-3.002025 -0.50308,-0.265176 -1.321625,-0.263078 -1.839478,0.0047 -0.713249,0.368835 -1.089204,1.566728 -0.720129,2.29453 0.08814,0.173805 1.080135,1.243744 2.204436,2.377641 L 84.906558,62.5 82.862373,64.561632 c -1.124302,1.133898 -2.116298,2.203837 -2.204436,2.377642 -0.38179,0.752874 -0.04626,1.888185 0.673453,2.278696 0.505948,0.274524 1.384375,0.28468 1.886153,0.02181 z"
   style="fill:#ffffff;fill-opacity:1;stroke-width:0.144676" /><path
   transform="matrix(2.0666667,0,0,2.0666667,0,-66.666667)"
   id="path2805"
   d="M 57.638889,62.5 V 50.347222 H 75.289352 92.939815 V 62.5 74.652778 H 75.289352 57.638889 Z m 17.463958,7.3835 c 0.355685,-0.216872 0.515401,-0.462526 0.681612,-1.04836 0.407647,-1.43682 2.427711,-11.179501 2.504907,-12.081065 0.07522,-0.878478 0.06517,-0.911109 -0.434307,-1.41059 -0.449577,-0.449577 -0.599051,-0.511309 -1.238055,-0.511309 -0.868321,0 -1.532141,0.465291 -1.740521,1.219981 -0.07259,0.262902 -0.702497,3.158499 -1.399793,6.43466 -1.16315,5.464926 -1.253471,6.004515 -1.094115,6.536399 0.314501,1.049708 1.694064,1.485994 2.720272,0.860284 z m -5.62129,-0.805481 c 0.239509,-0.201533 0.50997,-0.592158 0.601024,-0.868055 0.299023,-0.906049 0.007,-1.386333 -2.216076,-3.645016 l -2.025889,-2.058315 2.031169,-2.08453 c 2.218739,-2.277027 2.503567,-2.744964 2.210796,-3.632067 -0.262226,-0.794553 -0.895381,-1.23448 -1.776698,-1.23448 H 67.56568 l -2.876636,2.857349 c -1.58215,1.571542 -2.969324,3.033153 -3.082609,3.248024 -0.262505,0.497903 -0.263005,1.178642 -0.0012,1.678142 0.112608,0.214871 1.502788,1.676482 3.089289,3.248024 l 2.884547,2.857349 h 0.733523 c 0.573877,0 0.828301,-0.07975 1.168994,-0.366425 z m 13.996446,-0.0508 c 0.870827,-0.643929 5.346663,-5.239432 5.610482,-5.760486 0.536638,-1.05988 0.304595,-1.449784 -2.640335,-4.436602 -1.323248,-1.342068 -2.659814,-2.627876 -2.970147,-2.85735 -0.979736,-0.724462 -2.274049,-0.487425 -2.743796,0.502491 -0.527396,1.111405 -0.315586,1.507458 2.119873,3.963854 l 2.047877,2.065483 -2.041885,2.059327 c -1.123036,1.132631 -2.113997,2.201533 -2.202135,2.375338 -0.225914,0.445493 -0.199151,1.005047 0.07578,1.584427 0.471777,0.994197 1.760848,1.230715 2.744282,0.503518 z"
   style="fill:#ffffff;fill-opacity:1;stroke-width:0.144676" /><path
   transform="matrix(2.0666667,0,0,2.0666667,0,-66.666667)"
   id="path2807"
   d="M 57.638889,62.5 V 50.347222 H 75.289352 92.939815 V 62.5 74.652778 H 75.289352 57.638889 Z m 17.348786,7.457183 c 0.224035,-0.115852 0.507203,-0.425097 0.629267,-0.68721 0.282138,-0.60586 2.568531,-11.315776 2.67194,-12.515898 0.07571,-0.878722 0.0658,-0.910971 -0.433823,-1.41059 -0.429752,-0.429753 -0.611692,-0.510969 -1.140649,-0.509176 -0.742784,0.0025 -1.227898,0.22359 -1.582672,0.721247 -0.216379,0.303522 -2.452139,10.254913 -2.818034,12.543097 -0.239859,1.499993 1.29899,2.569562 2.673971,1.85853 z m -5.506118,-0.879164 c 0.239509,-0.201533 0.50997,-0.592158 0.601024,-0.868055 0.289468,-0.877095 0.0091,-1.337949 -2.199497,-3.615493 l -2.027356,-2.09064 1.986586,-2.063547 c 2.19091,-2.275786 2.50011,-2.767202 2.255285,-3.584354 -0.243867,-0.813956 -0.747038,-1.19282 -1.6878,-1.270835 l -0.805389,-0.06679 -2.684555,2.65896 c -3.13419,3.104309 -3.519392,3.577438 -3.519392,4.322734 0,0.748194 0.392531,1.230031 3.506369,4.304109 l 2.674485,2.640335 h 0.732385 c 0.572658,0 0.827357,-0.07991 1.167855,-0.366425 z m 14.149838,-0.192244 c 0.973381,-0.776627 5.029966,-4.940724 5.392558,-5.535474 0.653219,-1.071462 0.420901,-1.474268 -2.649697,-4.594206 -2.833088,-2.878613 -3.243958,-3.200539 -4.084794,-3.200539 -1.13182,0 -1.963402,1.059387 -1.715949,2.186025 0.0693,0.315519 0.72899,1.09563 2.208455,2.611589 l 2.109638,2.161676 -1.959947,1.981871 c -2.201527,2.226152 -2.433974,2.523488 -2.433974,3.113436 0,1.0427 0.781531,1.823726 1.831626,1.830442 0.484475,0.0031 0.738467,-0.105128 1.302084,-0.55482 z"
   style="fill:#ffffff;fill-opacity:1;stroke-width:0.144676" /><path
   transform="matrix(2.0666667,0,0,2.0666667,0,-66.666667)"
   id="path2809"
   d="M 72.983895,91.140538 C 65.800069,90.557523 58.632107,86.971827 53.885438,81.586743 50.607586,77.86803 48.173991,73.059261 47.228012,68.431713 c -0.634781,-3.105227 -0.768887,-6.680396 -0.365898,-9.75457 1.120122,-8.54478 6.220128,-16.304188 13.671472,-20.800475 8.392712,-5.064327 18.671644,-5.484968 27.46132,-1.123791 3.162574,1.569176 5.285527,3.101017 7.807922,5.633897 4.148033,4.165276 6.884582,9.576643 7.939862,15.70061 0.34678,2.012432 0.34678,6.8128 0,8.825232 -1.62143,9.40943 -7.242356,17.08136 -15.584448,21.271011 -4.598624,2.309567 -10.053443,3.372507 -15.174347,2.956911 z M 95.599334,77.986781 c 0.199948,-0.07602 0.48088,-0.317297 0.624292,-0.536172 0.246849,-0.376739 0.260749,-1.173718 0.260749,-14.950609 0,-13.776891 -0.0139,-14.57387 -0.260749,-14.95061 C 96.080214,47.330516 95.799282,47.089238 95.599334,47.013218 95.374656,46.927796 87.589823,46.875 75.218696,46.875 H 55.201599 l -0.440896,0.370989 c -0.242492,0.204044 -0.507541,0.610945 -0.588997,0.904225 -0.203644,0.733212 -0.203644,27.96636 0,28.699572 0.08146,0.29328 0.346505,0.700181 0.588997,0.904224 l 0.440896,0.37099 h 20.017097 c 12.371127,0 20.15596,-0.0528 20.380638,-0.138219 z"
   style="fill:#ffffff;fill-opacity:1;stroke-width:0.144676" /><path
   transform="matrix(2.0666667,0,0,2.0666667,0,-66.666667)"
   id="path2811"
   d="m 46.860532,108.71355 c -4.620827,-0.71923 -8.751603,-2.83244 -12.04405,-6.16146 -2.67157,-2.701235 -4.3912,-5.628258 -5.446918,-9.271317 -0.85035,-2.934381 -0.824175,-1.865615 -0.773326,-31.576491 l 0.04655,-27.199074 0.320714,-1.302083 c 0.744302,-3.021834 1.748635,-5.389615 3.201122,-7.546856 3.212085,-4.770605 7.8439,-7.893567 13.628128,-9.18865 L 47.29456,16.131366 H 75 c 30.85076,0 28.21405,-0.08109 31.53935,0.969971 6.47579,2.046865 11.79009,7.362209 13.85658,13.859311 1.05386,3.313338 0.9727,0.681884 0.9727,31.539352 0,26.42179 -0.0124,27.762416 -0.26777,28.935185 -0.88294,4.054937 -2.64749,7.604827 -5.1186,10.297545 -3.28066,3.57488 -6.7296,5.58302 -11.68538,6.8038 l -1.30209,0.32075 -27.416086,0.0295 c -22.899653,0.0246 -27.630589,-0.004 -28.718172,-0.1732 z M 79.774306,94.522187 c 13.297798,-1.79548 24.193484,-11.837824 27.117954,-24.994107 0.57788,-2.599719 0.72454,-4.038722 0.72367,-7.100418 -0.001,-4.318504 -0.68219,-8.008743 -2.17137,-11.766908 C 101.03778,39.539538 91.304261,32.015318 79.195602,30.369741 76.18492,29.960587 71.361648,30.222579 68.055556,30.97485 55.770175,33.770271 46.058028,43.772477 43.625757,56.134259 c -0.503163,2.557275 -0.640567,4.345261 -0.560594,7.294737 0.136126,5.020315 1.137127,9.098102 3.293468,13.416617 6.27046,12.557892 19.498927,19.555625 33.415675,17.676574 z"
   style="fill:#ffffff;fill-opacity:0.00062793;stroke-width:0.144676" /></svg>
