<svg xmlns="http://www.w3.org/2000/svg" width="16" height="16" viewBox="0 0 16 16">
  <g fill="none" fill-rule="evenodd">
    <path fill="#9AA7B0" fill-opacity=".8" d="M8.62774292,9.0025132 L4.6300553,13.0002008 L1.0003,13.0004 L1.0003,2.0504 C1.0003,2.0234 1.0233,2.0004 1.0503,2.0004 L4.9783,2.0004 C5.5323,2.0004 6.3043,2.3204 6.6963,2.7104 L7.9843,4.0004 L12,4 L11.9990146,4.13565971 C10.0459607,4.626806 8.6,6.3945419 8.6,8.5 C8.6,8.66986704 8.60941199,8.83753579 8.62774292,9.0025132 Z"/>
    <path fill="#9AA7B0" d="M9.32407693,10.2883493 C8.28654949,9.80051132 7.5682669,8.74587166 7.5682669,7.52346811 C7.5682669,6.24196448 8.35768271,5.14483879 9.4767559,4.69184948 L9.4767559,7.82882643 L11.7669427,7.82882643 L11.7669427,4.69184948 C12.8860159,5.14483879 13.6754317,6.24196448 13.6754317,7.52346811 C13.6754317,8.74587152 12.9571493,9.80051107 11.9196221,10.2883492 L11.9196221,16.6918495 L9.32407693,16.6918495 L9.32407693,10.2883493 Z" transform="rotate(45 10.622 10.692)"/>
  </g>
</svg>
